<!-- Generator: Adobe Illustrator 18.1.1, SVG Export Plug-In  -->
<svg version="1.1"
   xmlns="http://www.w3.org/2000/svg" xmlns:xlink="http://www.w3.org/1999/xlink" xmlns:a="http://ns.adobe.com/AdobeSVGViewerExtensions/3.0/"
   x="0px" y="0px" width="466.6px" height="91.5px" viewBox="0 0 466.6 91.5" style="enable-background:new 0 0 466.6 91.5;"
   xml:space="preserve">
<style type="text/css">
  .st0{fill:url(#SVGID_1_);}
  .st1{fill:#FFFFFF;}
  .st2{fill:url(#SVGID_2_);}
</style>
<defs>
</defs>
<linearGradient id="SVGID_1_" gradientUnits="userSpaceOnUse" x1="0" y1="45.7434" x2="466.5741" y2="45.7434">
  <stop  offset="0" style="stop-color:#55ACEE"/>
  <stop  offset="1" style="stop-color:#ED1E79"/>
</linearGradient>
<path class="st0" d="M45.7,91.5h375.1c25.3,0,45.7-20.5,45.7-45.7v0c0-25.3-20.5-45.7-45.7-45.7L45.7,0C20.5,0,0,20.5,0,45.7v0
  C0,71,20.5,91.5,45.7,91.5z"/>
<g>
  <path class="st1" d="M47.3,44.7h-4.7v-4.6c3.3-0.1,5.7-2,6.4-5.2h5V58h-6.7V44.7z"/>
</g>
<g>
  <path class="st1" d="M134.6,51.2c2.3-2,5.6-4.2,8.1-5.9c1.3-0.9,2-1.8,2-3.1c0-1.4-0.9-2.4-2.8-2.4c-1.1,0-1.9,0.3-2.4,1
    c-0.6,0.8-0.9,1.6-0.9,3.2h-6.3c0-2.7,0.3-3.9,1.1-5.4c1.3-2.3,4.2-4,8.6-4c6.1,0,9.2,3.2,9.2,7.4c0,2-0.6,3.7-1.9,5
    c-2.3,2.2-5.2,3.6-7.7,5.5v0.1h9.4V58H132C132,54.8,132.7,53,134.6,51.2z"/>
</g>
<g>
  <path class="st1" d="M226.5,56.5c-1.9-1.5-2.9-3.8-2.9-6.6h6.4c0.1,2.1,1.3,3.6,3.9,3.6c2.1,0,3.2-1.2,3.2-2.6
    c0-1.8-1.4-2.5-3.6-2.5h-1.3v-4.4h1.1c2.1,0,3.4-0.8,3.4-2.4c0-1.3-1-2.2-2.8-2.2c-2.3,0-3.2,1.4-3.3,3h-6.2c0-4.6,3.5-7.9,9.6-7.9
    c5.4,0,9.2,2.5,9.2,6.8c0,2.2-1.2,3.5-3.1,4.4v0.1c2.1,0.9,3.7,2.6,3.7,5.5c0,5.1-4.6,7.3-9.6,7.3
    C230.7,58.6,228.2,57.9,226.5,56.5z"/>
</g>
<g>
  <path class="st1" d="M407.8,51h6.6c0.4,1.6,1.8,2.5,3.5,2.5c2,0,3.2-1.3,3.2-3.5c0-2-1.2-3.3-3.3-3.3c-1.2,0-2.3,0.6-2.8,1.4h-6.2
    l2.5-12.9h15v5.3h-10l-0.7,3.2h0.1c0.7-0.6,2.1-1.3,4.2-1.3c4.8,0,8.1,3,8.1,7.8c0,5.4-3.7,8.6-9.7,8.6
    C412.6,58.6,408.5,56.3,407.8,51z"/>
</g>
<g>
  <polygon class="st1" points="320.3,47.9 320.3,47.7 326.3,47.7 326.3,40.7 326.4,40.7   "/>
  <path class="st1" d="M327.9,10.1c-19.7,0-35.6,16-35.6,35.6s16,35.6,35.6,35.6s35.6-16,35.6-35.6S347.6,10.1,327.9,10.1z
     M336.3,52.7h-3v5h-7v-5h-11v-5.3l11.2-12.7h6.8v13h3V52.7z"/>
</g>
</svg>
