<!-- Generator: Adobe Illustrator 18.1.1, SVG Export Plug-In  -->
<svg version="1.1"
   xmlns="http://www.w3.org/2000/svg" xmlns:xlink="http://www.w3.org/1999/xlink" xmlns:a="http://ns.adobe.com/AdobeSVGViewerExtensions/3.0/"
   x="0px" y="0px" width="466.6px" height="91.5px" viewBox="0 0 466.6 91.5" style="enable-background:new 0 0 466.6 91.5;"
   xml:space="preserve">
<style type="text/css">
  .st0{fill:url(#SVGID_1_);}
  .st1{fill:#FFFFFF;}
  .st2{fill:url(#SVGID_2_);}
</style>
<defs>
</defs>
<linearGradient id="SVGID_1_" gradientUnits="userSpaceOnUse" x1="0" y1="45.7434" x2="466.5741" y2="45.7434">
  <stop  offset="0" style="stop-color:#55ACEE"/>
  <stop  offset="1" style="stop-color:#ED1E79"/>
</linearGradient>
<path class="st0" d="M45.7,91.5h375.1c25.3,0,45.7-20.5,45.7-45.7v0c0-25.3-20.5-45.7-45.7-45.7L45.7,0C20.5,0,0,20.5,0,45.7v0
  C0,71,20.5,91.5,45.7,91.5z"/>
<g>
  <path class="st1" d="M47.3,44.7h-4.7v-4.6c3.3-0.1,5.7-2,6.4-5.2h5V58h-6.7V44.7z"/>
</g>
<g>
  <path class="st1" d="M134.6,51.2c2.3-2,5.6-4.2,8.1-5.9c1.3-0.9,2-1.8,2-3.1c0-1.4-0.9-2.4-2.8-2.4c-1.1,0-1.9,0.3-2.4,1
    c-0.6,0.8-0.9,1.6-0.9,3.2h-6.3c0-2.7,0.3-3.9,1.1-5.4c1.3-2.3,4.2-4,8.6-4c6.1,0,9.2,3.2,9.2,7.4c0,2-0.6,3.7-1.9,5
    c-2.3,2.2-5.2,3.6-7.7,5.5v0.1h9.4V58H132C132,54.8,132.7,53,134.6,51.2z"/>
</g>
<g>
  <path class="st1" d="M326.5,52.9h-10.8v-5.5l10.9-12.6h6.5v13.1h3.2v4.9H333V58h-6.5V52.9z M320.5,47.9h6V41h-0.1L320.5,47.9
    L320.5,47.9z"/>
</g>
<g>
  <path class="st1" d="M407.8,51h6.6c0.4,1.6,1.8,2.5,3.5,2.5c2,0,3.2-1.3,3.2-3.5c0-2-1.2-3.3-3.3-3.3c-1.2,0-2.3,0.6-2.8,1.4h-6.2
    l2.5-12.9h15v5.3h-10l-0.7,3.2h0.1c0.7-0.6,2.1-1.3,4.2-1.3c4.8,0,8.1,3,8.1,7.8c0,5.4-3.7,8.6-9.7,8.6
    C412.6,58.6,408.5,56.3,407.8,51z"/>
</g>
<path class="st1" d="M233.9,10.1c-19.7,0-35.6,16-35.6,35.6s16,35.6,35.6,35.6s35.6-16,35.6-35.6S253.6,10.1,233.9,10.1z
   M234.2,58.6c-3.5,0-5.9-0.8-7.7-2.2c-1.9-1.5-2.9-3.7-2.9-6.7h6.4c0.1,2,1.3,3.8,3.9,3.8c2.1,0,3.2-1,3.2-2.4
  c0-1.8-1.4-2.3-3.6-2.3h-1.1v-5h0.9c2.1,0,3.4-0.6,3.4-2.2c0-1.3-1-2-2.8-2c-2.3,0-3.2,1.2-3.3,3.2h-6.2c0-5,3.5-8.1,9.6-8.1
  c5.4,0,9.3,2.4,9.3,6.7c0,2.2-0.9,3.4-2.9,4.3v0.1c2,0.9,3.6,2.6,3.6,5.5C243.9,56.4,239.1,58.6,234.2,58.6z"/>
</svg>
