<!-- Generator: Adobe Illustrator 18.1.1, SVG Export Plug-In  -->
<svg version="1.1"
   xmlns="http://www.w3.org/2000/svg" xmlns:xlink="http://www.w3.org/1999/xlink" xmlns:a="http://ns.adobe.com/AdobeSVGViewerExtensions/3.0/"
   x="0px" y="0px" width="587.5px" height="508.4px" viewBox="0 0 587.5 508.4" style="enable-background:new 0 0 587.5 508.4;"
   xml:space="preserve">
<style type="text/css">
  .st0{fill:#E6E6E6;}
  .st1{fill:#ED1E79;}
  .st2{fill:#FFFFFF;}
</style>
<defs>
</defs>
<g>
  <path class="st0" d="M0,379.9c0-9,6.5-15.1,14.8-15.1c4.6,0,8.2,2.1,10.7,5.2l-2.1,1.4c-1.8-2.5-5-4.3-8.6-4.3
    c-6.8,0-12.2,5.2-12.2,12.8c0,7.5,5.4,12.8,12.2,12.8c3.5,0,6.7-1.7,8.6-4.3l2.1,1.3c-2.6,3.2-6.1,5.2-10.7,5.2
    C6.5,395.1,0,388.9,0,379.9z"/>
  <path class="st0" d="M30.4,394.5v-21.2h2.3v3.6c1.8-2.4,4.2-4.1,7.1-4.1v2.5c-0.4-0.1-0.7-0.1-1.1-0.1c-2.1,0-5,1.9-6,3.8v15.4
    H30.4z"/>
  <path class="st0" d="M43.2,383.9c0-6.1,4.3-11.1,10.2-11.1c6.4,0,10,5.1,10,11.2v0.6H45.6c0.2,4.6,3.3,8.4,8.3,8.4
    c2.7,0,5.1-1,6.9-2.9l1.2,1.5c-2.1,2.2-4.8,3.4-8.3,3.4C47.5,395.1,43.2,390.4,43.2,383.9z M53.3,374.8c-5,0-7.5,4.4-7.7,8.1H61
    C61,379.3,58.6,374.8,53.3,374.8z"/>
  <path class="st0" d="M82.7,394.5V392c-1.9,2.1-4.3,3-7.2,3c-3.6,0-7.4-2.5-7.4-7.1c0-4.6,3.7-7,7.4-7c2.9,0,5.4,1,7.2,3v-4.3
    c0-3.2-2.5-4.9-5.7-4.9c-2.7,0-4.7,0.9-6.7,3.1l-1.3-1.6c2.2-2.4,4.6-3.6,8.2-3.6c4.3,0,7.7,2.1,7.7,6.8v14.9H82.7z M82.7,390.4
    v-4.6c-1.5-2-3.9-2.9-6.4-2.9c-3.5,0-5.8,2.2-5.8,5.3c0,3,2.3,5.2,5.8,5.2C78.8,393.3,81.2,392.3,82.7,390.4z"/>
  <path class="st0" d="M92.5,390.4v-15.1H89v-2h3.5v-5.8h2.3v5.8h4.3v2h-4.3v14.7c0,1.7,0.7,2.9,2.2,2.9c1,0,1.9-0.5,2.4-1l0.9,1.8
    c-0.8,0.8-1.8,1.3-3.6,1.3C93.9,395.1,92.5,393.3,92.5,390.4z"/>
  <path class="st0" d="M102.9,383.9c0-6.1,4.3-11.1,10.2-11.1c6.4,0,10,5.1,10,11.2v0.6h-17.7c0.2,4.6,3.3,8.4,8.3,8.4
    c2.7,0,5.1-1,6.9-2.9l1.2,1.5c-2.1,2.2-4.8,3.4-8.3,3.4C107.3,395.1,102.9,390.4,102.9,383.9z M113.1,374.8c-5,0-7.5,4.4-7.7,8.1
    h15.4C120.7,379.3,118.4,374.8,113.1,374.8z"/>
  <path class="st0" d="M140.8,390.4v-15.1h-3.5v-2h3.5v-5.8h2.3v5.8h4.3v2h-4.3v14.7c0,1.7,0.7,2.9,2.2,2.9c1,0,1.9-0.5,2.4-1
    l0.9,1.8c-0.8,0.8-1.8,1.3-3.6,1.3C142.1,395.1,140.8,393.3,140.8,390.4z"/>
  <path class="st0" d="M166.7,394.5v-14.4c0-4.1-2.1-5.2-5.1-5.2c-2.7,0-5.5,1.7-6.9,3.6v16h-2.3v-29.2h2.3v11.3
    c1.5-1.8,4.6-3.7,7.6-3.7c4.3,0,6.7,2,6.7,6.8v14.9H166.7z"/>
  <path class="st0" d="M174.9,383.9c0-6.1,4.3-11.1,10.2-11.1c6.4,0,10,5.1,10,11.2v0.6h-17.7c0.2,4.6,3.3,8.4,8.3,8.4
    c2.7,0,5.1-1,6.9-2.9l1.2,1.5c-2.1,2.2-4.8,3.4-8.3,3.4C179.3,395.1,174.9,390.4,174.9,383.9z M185,374.8c-5,0-7.5,4.4-7.7,8.1
    h15.4C192.7,379.3,190.3,374.8,185,374.8z"/>
  <path class="st0" d="M212.3,394.5v-29.2h2.3v11.5c1.7-2.4,4.4-3.9,7.4-3.9c5.7,0,9.5,4.4,9.5,11.1c0,6.8-3.9,11.1-9.5,11.1
    c-3.2,0-5.9-1.7-7.4-3.9v3.4H212.3z M221.6,393c4.7,0,7.4-3.9,7.4-9s-2.7-9.1-7.4-9.1c-2.9,0-5.7,1.8-7,3.9v10.5
    C215.8,391.2,218.6,393,221.6,393z"/>
  <path class="st0" d="M236.2,383.9c0-6.1,4.3-11.1,10.2-11.1c6.4,0,10,5.1,10,11.2v0.6h-17.7c0.2,4.6,3.3,8.4,8.3,8.4
    c2.7,0,5.1-1,6.9-2.9l1.2,1.5c-2.1,2.2-4.8,3.4-8.3,3.4C240.5,395.1,236.2,390.4,236.2,383.9z M246.3,374.8c-5,0-7.5,4.4-7.7,8.1
    H254C254,379.3,251.6,374.8,246.3,374.8z"/>
  <path class="st0" d="M260.4,391.7l1.4-1.7c1.4,1.7,3.9,3.1,6.8,3.1c3.6,0,5.7-1.8,5.7-4.3c0-5.8-13.4-2.5-13.4-10.1
    c0-3.2,2.8-5.9,7.5-5.9c3.6,0,6.1,1.4,7.6,3.1l-1.3,1.6c-1.2-1.7-3.5-2.8-6.3-2.8c-3.3,0-5.3,1.7-5.3,3.9c0,5.3,13.3,2.1,13.3,10.2
    c0,3.4-2.6,6.2-7.9,6.2C265.1,395.1,262.5,394,260.4,391.7z"/>
  <path class="st0" d="M282.8,390.4v-15.1h-3.5v-2h3.5v-5.8h2.3v5.8h4.3v2h-4.3v14.7c0,1.7,0.7,2.9,2.2,2.9c1,0,1.9-0.5,2.4-1
    l0.9,1.8c-0.8,0.8-1.8,1.3-3.6,1.3C284.1,395.1,282.8,393.3,282.8,390.4z"/>
  <path class="st0" d="M308,391.1v11.5h-2.3v-29.3h2.3v3.3c1.5-2.1,4.2-3.9,7.4-3.9c5.7,0,9.5,4.3,9.5,11.1c0,6.8-3.8,11.1-9.5,11.1
    C312.4,395.1,309.8,393.5,308,391.1z M322.4,383.9c0-5.1-2.7-9-7.4-9c-2.9,0-5.7,1.8-7,3.8v10.5c1.2,2,4,3.9,7,3.9
    C319.8,393,322.4,389,322.4,383.9z"/>
  <path class="st0" d="M329.4,383.9c0-6.2,3.9-11.1,10.1-11.1c6.3,0,10.2,4.9,10.2,11.1c0,6.2-3.9,11.1-10.2,11.1
    C333.4,395.1,329.4,390.1,329.4,383.9z M347.3,383.9c0-4.7-2.8-9-7.8-9c-4.9,0-7.7,4.3-7.7,9c0,4.7,2.8,9.1,7.7,9.1
    C344.6,393,347.3,388.6,347.3,383.9z"/>
  <path class="st0" d="M353.8,391.7l1.4-1.7c1.4,1.7,3.9,3.1,6.8,3.1c3.6,0,5.7-1.8,5.7-4.3c0-5.8-13.4-2.5-13.4-10.1
    c0-3.2,2.8-5.9,7.5-5.9c3.6,0,6.1,1.4,7.6,3.1l-1.3,1.6c-1.2-1.7-3.5-2.8-6.3-2.8c-3.3,0-5.3,1.7-5.3,3.9c0,5.3,13.3,2.1,13.3,10.2
    c0,3.4-2.6,6.2-7.9,6.2C358.6,395.1,355.9,394,353.8,391.7z"/>
  <path class="st0" d="M376.2,390.4v-15.1h-3.5v-2h3.5v-5.8h2.3v5.8h4.3v2h-4.3v14.7c0,1.7,0.7,2.9,2.2,2.9c1,0,1.9-0.5,2.4-1
    l0.9,1.8c-0.8,0.8-1.8,1.3-3.6,1.3C377.6,395.1,376.2,393.3,376.2,390.4z"/>
  <path class="st0" d="M386,391.7l1.4-1.7c1.4,1.7,3.9,3.1,6.8,3.1c3.6,0,5.7-1.8,5.7-4.3c0-5.8-13.4-2.5-13.4-10.1
    c0-3.2,2.8-5.9,7.5-5.9c3.6,0,6.1,1.4,7.6,3.1l-1.3,1.6c-1.2-1.7-3.5-2.8-6.3-2.8c-3.3,0-5.3,1.7-5.3,3.9c0,5.3,13.3,2.1,13.3,10.2
    c0,3.4-2.6,6.2-7.9,6.2C390.8,395.1,388.1,394,386,391.7z"/>
  <path class="st0" d="M438.8,394.5c-1-0.9-2.4-2.1-3.7-3.5c-2.1,2.4-4.9,4-8.6,4c-4.8,0-8.8-2.7-8.8-8c0-4.6,3.1-7,6.5-8.9
    c-1.4-2.3-2.4-4.6-2.4-6.7c0-3.9,3.1-6.7,7-6.7c3.6,0,6.1,2,6.1,5.5c0,4.4-3.8,6.4-7.6,8.4c1.3,1.8,2.7,3.4,3.8,4.6
    c1.4,1.5,2.6,2.9,3.9,4.3c1.8-2.6,2.9-5.5,3.3-7.1l2.1,0.9c-0.9,2.3-2.1,5.3-3.9,7.8c1.7,1.7,3.5,3.4,5.7,5.4H438.8z M433.6,389.5
    c-1.8-1.8-3.5-3.6-4.3-4.7c-1.3-1.5-2.7-3.2-3.9-5c-2.8,1.7-5.1,3.6-5.1,7.1c0,4,3.1,6.1,6.4,6.1
    C429.5,393,431.8,391.5,433.6,389.5z M426.2,377.1c3.3-1.8,6.4-3.4,6.4-6.7c0-2.4-1.7-3.7-3.8-3.7c-2.5,0-4.6,2-4.6,4.8
    C424.2,373.3,425.1,375.2,426.2,377.1z"/>
  <path class="st0" d="M459.2,390.4v-15.1h-3.5v-2h3.5v-5.8h2.3v5.8h4.3v2h-4.3v14.7c0,1.7,0.7,2.9,2.2,2.9c1,0,1.9-0.5,2.4-1
    l0.9,1.8c-0.8,0.8-1.8,1.3-3.6,1.3C460.5,395.1,459.2,393.3,459.2,390.4z"/>
  <path class="st0" d="M488.9,394.5l-5.9-18.1l-6,18.1h-2.2l-6.9-21.2h2.5l5.6,18l6-18h2l6,18l5.6-18h2.5l-6.9,21.2H488.9z"/>
  <path class="st0" d="M501.1,383.9c0-6.1,4.3-11.1,10.2-11.1c6.4,0,10,5.1,10,11.2v0.6h-17.7c0.2,4.6,3.3,8.4,8.3,8.4
    c2.7,0,5.1-1,6.9-2.9l1.2,1.5c-2.1,2.2-4.8,3.4-8.3,3.4C505.5,395.1,501.1,390.4,501.1,383.9z M511.3,374.8c-5,0-7.5,4.4-7.7,8.1
    H519C518.9,379.3,516.6,374.8,511.3,374.8z"/>
  <path class="st0" d="M526,383.9c0-6.1,4.3-11.1,10.2-11.1c6.4,0,10,5.1,10,11.2v0.6h-17.7c0.2,4.6,3.3,8.4,8.3,8.4
    c2.7,0,5.1-1,6.9-2.9l1.2,1.5c-2.1,2.2-4.8,3.4-8.3,3.4C530.4,395.1,526,390.4,526,383.9z M536.1,374.8c-5,0-7.5,4.4-7.7,8.1h15.4
    C543.8,379.3,541.4,374.8,536.1,374.8z"/>
  <path class="st0" d="M552.5,390.4v-15.1H549v-2h3.5v-5.8h2.3v5.8h4.3v2h-4.3v14.7c0,1.7,0.7,2.9,2.2,2.9c1,0,1.9-0.5,2.4-1l0.9,1.8
    c-0.8,0.8-1.8,1.3-3.6,1.3C553.9,395.1,552.5,393.3,552.5,390.4z"/>
  <path class="st0" d="M562.3,391.7l1.4-1.7c1.4,1.7,3.9,3.1,6.8,3.1c3.6,0,5.7-1.8,5.7-4.3c0-5.8-13.4-2.5-13.4-10.1
    c0-3.2,2.8-5.9,7.5-5.9c3.6,0,6.1,1.4,7.6,3.1l-1.3,1.6c-1.2-1.7-3.5-2.8-6.3-2.8c-3.3,0-5.3,1.7-5.3,3.9c0,5.3,13.3,2.1,13.3,10.2
    c0,3.4-2.6,6.2-7.9,6.2C567,395.1,564.4,394,562.3,391.7z"/>
  <path class="st0" d="M583.5,393c0-1,0.9-1.9,2-1.9c1.1,0,1.9,0.9,1.9,1.9c0,1.1-0.9,1.9-1.9,1.9C584.5,394.9,583.5,394,583.5,393z"
    />
  <path class="st0" d="M101.5,432.5c0-9,6.6-15.1,14.8-15.1c4.8,0,8.3,1.9,11,5l-1.9,1.4c-2.1-2.5-5.4-4.1-9.1-4.1
    c-6.8,0-12.2,5.2-12.2,12.8c0,7.5,5.4,12.9,12.2,12.9c3.9,0,7-1.9,8.6-3.6v-7h-11.1v-2.2h13.6v10.2c-2.6,2.9-6.5,4.9-11.1,4.9
    C108.1,447.7,101.5,441.6,101.5,432.5z"/>
  <path class="st0" d="M132.5,436.5c0-6.1,4.3-11.1,10.2-11.1c6.4,0,10,5.1,10,11.2v0.6H135c0.2,4.6,3.3,8.4,8.3,8.4
    c2.7,0,5.1-1,6.9-2.9l1.2,1.5c-2.1,2.2-4.8,3.4-8.3,3.4C136.9,447.7,132.5,443.1,132.5,436.5z M142.7,427.4c-5,0-7.5,4.4-7.7,8.1
    h15.4C150.3,431.9,148,427.4,142.7,427.4z"/>
  <path class="st0" d="M159,443.1V428h-3.5v-2h3.5v-5.8h2.3v5.8h4.3v2h-4.3v14.7c0,1.7,0.7,2.9,2.2,2.9c1,0,1.9-0.5,2.4-1l0.9,1.8
    c-0.8,0.8-1.8,1.3-3.6,1.3C160.4,447.7,159,446,159,443.1z"/>
  <path class="st0" d="M182.4,443.1V428h-3.5v-2h3.5v-5.8h2.3v5.8h4.3v2h-4.3v14.7c0,1.7,0.7,2.9,2.2,2.9c1,0,1.9-0.5,2.4-1l0.9,1.8
    c-0.8,0.8-1.8,1.3-3.6,1.3C183.8,447.7,182.4,446,182.4,443.1z"/>
  <path class="st0" d="M208.4,447.2v-14.4c0-4.1-2.1-5.2-5.1-5.2c-2.7,0-5.5,1.7-6.9,3.6v16h-2.3v-29.2h2.3v11.3
    c1.5-1.8,4.6-3.7,7.6-3.7c4.3,0,6.7,2,6.7,6.8v14.9H208.4z"/>
  <path class="st0" d="M216.6,436.5c0-6.1,4.3-11.1,10.2-11.1c6.4,0,10,5.1,10,11.2v0.6H219c0.2,4.6,3.3,8.4,8.3,8.4
    c2.7,0,5.1-1,6.9-2.9l1.2,1.5c-2.1,2.2-4.8,3.4-8.3,3.4C220.9,447.7,216.6,443.1,216.6,436.5z M226.7,427.4c-5,0-7.5,4.4-7.7,8.1
    h15.4C234.4,431.9,232,427.4,226.7,427.4z"/>
  <path class="st0" d="M279.2,447.2v-14.8c0-3-1.3-4.8-4.3-4.8c-2.3,0-4.9,1.7-6.1,3.6v16.1h-2.3v-14.8c0-3-1.2-4.8-4.2-4.8
    c-2.3,0-4.8,1.7-6.1,3.6v16H254V426h2.3v3.2c0.9-1.4,3.8-3.7,6.8-3.7c3.3,0,5,1.9,5.6,4c1.2-2,4-4,7-4c3.9,0,5.8,2.2,5.8,6.4v15.3
    H279.2z"/>
  <path class="st0" d="M287.4,436.5c0-6.2,3.9-11.1,10.1-11.1c6.3,0,10.2,4.9,10.2,11.1c0,6.2-3.9,11.1-10.2,11.1
    C291.3,447.7,287.4,442.7,287.4,436.5z M305.3,436.5c0-4.7-2.8-9-7.8-9c-4.9,0-7.7,4.3-7.7,9c0,4.7,2.8,9.1,7.7,9.1
    C302.5,445.6,305.3,441.3,305.3,436.5z"/>
  <path class="st0" d="M311.8,444.3l1.4-1.7c1.4,1.7,3.9,3.1,6.8,3.1c3.6,0,5.7-1.8,5.7-4.3c0-5.8-13.4-2.5-13.4-10.1
    c0-3.2,2.8-5.9,7.5-5.9c3.6,0,6.1,1.4,7.6,3.1l-1.3,1.6c-1.2-1.7-3.5-2.8-6.3-2.8c-3.3,0-5.3,1.7-5.3,3.9c0,5.3,13.3,2.1,13.3,10.2
    c0,3.4-2.6,6.2-7.9,6.2C316.5,447.7,313.9,446.7,311.8,444.3z"/>
  <path class="st0" d="M334.2,443.1V428h-3.5v-2h3.5v-5.8h2.3v5.8h4.3v2h-4.3v14.7c0,1.7,0.7,2.9,2.2,2.9c1,0,1.9-0.5,2.4-1l0.9,1.8
    c-0.8,0.8-1.8,1.3-3.6,1.3C335.5,447.7,334.2,446,334.2,443.1z"/>
  <path class="st0" d="M355.3,444.3l1.4-1.7c1.4,1.7,3.9,3.1,6.8,3.1c3.6,0,5.7-1.8,5.7-4.3c0-5.8-13.4-2.5-13.4-10.1
    c0-3.2,2.8-5.9,7.5-5.9c3.6,0,6.1,1.4,7.6,3.1l-1.3,1.6c-1.2-1.7-3.5-2.8-6.3-2.8c-3.3,0-5.3,1.7-5.3,3.9c0,5.3,13.3,2.1,13.3,10.2
    c0,3.4-2.6,6.2-7.9,6.2C360.1,447.7,357.4,446.7,355.3,444.3z"/>
  <path class="st0" d="M391.6,447.2v-14.4c0-4.1-2.1-5.2-5.1-5.2c-2.7,0-5.5,1.7-6.9,3.6v16h-2.3v-29.2h2.3v11.3
    c1.5-1.8,4.6-3.7,7.6-3.7c4.3,0,6.7,2,6.7,6.8v14.9H391.6z"/>
  <path class="st0" d="M414.4,447.2v-2.5c-1.9,2.1-4.3,3-7.2,3c-3.6,0-7.4-2.5-7.4-7.1c0-4.6,3.7-7,7.4-7c2.9,0,5.4,1,7.2,3v-4.3
    c0-3.2-2.5-4.9-5.7-4.9c-2.7,0-4.7,0.9-6.7,3.1l-1.3-1.6c2.2-2.4,4.6-3.6,8.2-3.6c4.3,0,7.7,2.1,7.7,6.8v14.9H414.4z M414.4,443
    v-4.6c-1.5-2-3.9-2.9-6.4-2.9c-3.5,0-5.8,2.2-5.8,5.3c0,3,2.3,5.2,5.8,5.2C410.6,445.9,412.9,444.9,414.4,443z"/>
  <path class="st0" d="M423.8,447.2V426h2.3v3.6c1.8-2.4,4.2-4.1,7.1-4.1v2.5c-0.4-0.1-0.7-0.1-1.1-0.1c-2.1,0-5,1.9-6,3.8v15.4
    H423.8z"/>
  <path class="st0" d="M436.5,436.5c0-6.1,4.3-11.1,10.2-11.1c6.4,0,10,5.1,10,11.2v0.6H439c0.2,4.6,3.3,8.4,8.3,8.4
    c2.7,0,5.1-1,6.9-2.9l1.2,1.5c-2.1,2.2-4.8,3.4-8.3,3.4C440.9,447.7,436.5,443.1,436.5,436.5z M446.7,427.4c-5,0-7.5,4.4-7.7,8.1
    h15.4C454.3,431.9,452,427.4,446.7,427.4z"/>
  <path class="st0" d="M460.8,444.3l1.4-1.7c1.4,1.7,3.9,3.1,6.8,3.1c3.6,0,5.7-1.8,5.7-4.3c0-5.8-13.4-2.5-13.4-10.1
    c0-3.2,2.8-5.9,7.5-5.9c3.6,0,6.1,1.4,7.6,3.1l-1.3,1.6c-1.2-1.7-3.5-2.8-6.3-2.8c-3.3,0-5.3,1.7-5.3,3.9c0,5.3,13.3,2.1,13.3,10.2
    c0,3.4-2.6,6.2-7.9,6.2C465.5,447.7,462.9,446.7,460.8,444.3z"/>
  <path class="st0" d="M482,445.6c0-1,0.9-1.9,2-1.9c1.1,0,1.9,0.9,1.9,1.9c0,1.1-0.9,1.9-1.9,1.9C482.9,447.5,482,446.7,482,445.6z"
    />
  <path class="st0" d="M32.9,499.8v-29.2h2.5v29.2H32.9z"/>
  <path class="st0" d="M67.8,499.8V485c0-3-1.3-4.8-4.3-4.8c-2.3,0-4.9,1.7-6.1,3.6v16.1h-2.3V485c0-3-1.2-4.8-4.2-4.8
    c-2.3,0-4.8,1.7-6.1,3.6v16h-2.3v-21.2h2.3v3.2c0.9-1.4,3.8-3.7,6.8-3.7c3.3,0,5,1.9,5.6,4c1.2-2,4-4,7-4c3.9,0,5.8,2.2,5.8,6.4
    v15.3H67.8z"/>
  <path class="st0" d="M79.5,496.4v11.5h-2.3v-29.3h2.3v3.3c1.5-2.1,4.2-3.9,7.4-3.9c5.7,0,9.5,4.3,9.5,11.1c0,6.8-3.8,11.1-9.5,11.1
    C83.9,500.3,81.2,498.8,79.5,496.4z M93.9,489.2c0-5.1-2.7-9-7.4-9c-2.9,0-5.7,1.8-7,3.8v10.5c1.2,2,4,3.9,7,3.9
    C91.2,498.2,93.9,494.3,93.9,489.2z"/>
  <path class="st0" d="M102.1,499.8v-21.2h2.3v3.6c1.8-2.4,4.2-4.1,7.1-4.1v2.5c-0.4-0.1-0.7-0.1-1.1-0.1c-2.1,0-5,1.9-6,3.8v15.4
    H102.1z"/>
  <path class="st0" d="M114.8,489.2c0-6.2,3.9-11.1,10.1-11.1c6.3,0,10.2,4.9,10.2,11.1c0,6.2-3.9,11.1-10.2,11.1
    C118.8,500.3,114.8,495.4,114.8,489.2z M132.7,489.2c0-4.7-2.8-9-7.8-9c-4.9,0-7.7,4.3-7.7,9c0,4.7,2.8,9.1,7.7,9.1
    C129.9,498.2,132.7,493.9,132.7,489.2z"/>
  <path class="st0" d="M146.7,499.8l-8.9-21.2h2.5l7.7,18.5l7.6-18.5h2.6l-8.9,21.2H146.7z"/>
  <path class="st0" d="M161,489.2c0-6.1,4.3-11.1,10.2-11.1c6.4,0,10,5.1,10,11.2v0.6h-17.7c0.2,4.6,3.3,8.4,8.3,8.4
    c2.7,0,5.1-1,6.9-2.9l1.2,1.5c-2.1,2.2-4.8,3.4-8.3,3.4C165.3,500.3,161,495.7,161,489.2z M171.1,480c-5,0-7.5,4.4-7.7,8.1h15.4
    C178.8,484.5,176.4,480,171.1,480z"/>
  <path class="st0" d="M198.4,499.8v-29.2h2.3V482c1.7-2.4,4.4-3.9,7.4-3.9c5.7,0,9.5,4.4,9.5,11.1c0,6.8-3.9,11.1-9.5,11.1
    c-3.2,0-5.9-1.7-7.4-3.9v3.4H198.4z M207.6,498.2c4.7,0,7.4-3.9,7.4-9s-2.7-9.1-7.4-9.1c-2.9,0-5.7,1.8-7,3.9v10.5
    C201.9,496.5,204.7,498.2,207.6,498.2z"/>
  <path class="st0" d="M222.2,489.2c0-6.1,4.3-11.1,10.2-11.1c6.4,0,10,5.1,10,11.2v0.6h-17.7c0.2,4.6,3.3,8.4,8.3,8.4
    c2.7,0,5.1-1,6.9-2.9l1.2,1.5c-2.1,2.2-4.8,3.4-8.3,3.4C226.6,500.3,222.2,495.7,222.2,489.2z M232.3,480c-5,0-7.5,4.4-7.7,8.1
    h15.4C240,484.5,237.7,480,232.3,480z"/>
  <path class="st0" d="M249,499.8v-19.2h-3.5v-2h3.5v-1.9c0-4.1,2.2-6.6,5.7-6.6c1.5,0,2.7,0.3,4,1.5l-1.1,1.7
    c-0.7-0.7-1.6-1.1-2.7-1.1c-2.4,0-3.6,1.7-3.6,4.5v1.9h4.3v2h-4.3v19.2H249z"/>
  <path class="st0" d="M258.7,489.2c0-6.2,3.9-11.1,10.1-11.1c6.3,0,10.2,4.9,10.2,11.1c0,6.2-3.9,11.1-10.2,11.1
    C262.7,500.3,258.7,495.4,258.7,489.2z M276.6,489.2c0-4.7-2.8-9-7.8-9c-4.9,0-7.7,4.3-7.7,9c0,4.7,2.8,9.1,7.7,9.1
    C273.8,498.2,276.6,493.9,276.6,489.2z"/>
  <path class="st0" d="M284.9,499.8v-21.2h2.3v3.6c1.8-2.4,4.2-4.1,7.1-4.1v2.5c-0.4-0.1-0.7-0.1-1.1-0.1c-2.1,0-5,1.9-6,3.8v15.4
    H284.9z"/>
  <path class="st0" d="M297.6,489.2c0-6.1,4.3-11.1,10.2-11.1c6.4,0,10,5.1,10,11.2v0.6h-17.7c0.2,4.6,3.3,8.4,8.3,8.4
    c2.7,0,5.1-1,6.9-2.9l1.2,1.5c-2.1,2.2-4.8,3.4-8.3,3.4C302,500.3,297.6,495.7,297.6,489.2z M307.8,480c-5,0-7.5,4.4-7.7,8.1h15.4
    C315.5,484.5,313.1,480,307.8,480z"/>
  <path class="st0" d="M334,506c0.5,0.2,1.3,0.4,1.8,0.4c1.4,0,2.4-0.6,3.2-2.6l1.7-3.8l-9-21.4h2.5l7.7,18.5l7.6-18.5h2.6l-11,25.8
    c-1.1,2.7-2.9,3.9-5.4,3.9c-0.7,0-1.7-0.1-2.3-0.3L334,506z"/>
  <path class="st0" d="M355,489.2c0-6.2,3.9-11.1,10.1-11.1c6.3,0,10.2,4.9,10.2,11.1c0,6.2-3.9,11.1-10.2,11.1
    C358.9,500.3,355,495.4,355,489.2z M372.9,489.2c0-4.7-2.8-9-7.8-9c-4.9,0-7.7,4.3-7.7,9c0,4.7,2.8,9.1,7.7,9.1
    C370.1,498.2,372.9,493.9,372.9,489.2z"/>
  <path class="st0" d="M395.5,499.8v-3.1c-1.7,1.9-4.6,3.6-7.6,3.6c-4.3,0-6.7-2-6.7-6.8v-14.9h2.3V493c0,4.1,2.1,5.3,5.1,5.3
    c2.7,0,5.5-1.6,6.9-3.5v-16.1h2.3v21.2H395.5z"/>
  <path class="st0" d="M418.5,496.4v11.5h-2.3v-29.3h2.3v3.3c1.5-2.1,4.2-3.9,7.4-3.9c5.7,0,9.5,4.3,9.5,11.1
    c0,6.8-3.8,11.1-9.5,11.1C422.9,500.3,420.2,498.8,418.5,496.4z M432.9,489.2c0-5.1-2.7-9-7.4-9c-2.9,0-5.7,1.8-7,3.8v10.5
    c1.2,2,4,3.9,7,3.9C430.2,498.2,432.9,494.3,432.9,489.2z"/>
  <path class="st0" d="M455.4,499.8v-3.1c-1.7,1.9-4.6,3.6-7.6,3.6c-4.3,0-6.7-2-6.7-6.8v-14.9h2.3V493c0,4.1,2.1,5.3,5.1,5.3
    c2.7,0,5.5-1.6,6.9-3.5v-16.1h2.3v21.2H455.4z"/>
  <path class="st0" d="M464.8,499.8v-29.2h2.3V482c1.7-2.4,4.4-3.9,7.4-3.9c5.7,0,9.5,4.4,9.5,11.1c0,6.8-3.9,11.1-9.5,11.1
    c-3.2,0-5.9-1.7-7.4-3.9v3.4H464.8z M474,498.2c4.7,0,7.4-3.9,7.4-9s-2.7-9.1-7.4-9.1c-2.9,0-5.7,1.8-7,3.9v10.5
    C468.3,496.5,471.1,498.2,474,498.2z"/>
  <path class="st0" d="M489.8,499.8v-29.2h2.3v29.2H489.8z"/>
  <path class="st0" d="M498.6,473.5c0-1,0.8-1.7,1.8-1.7c1,0,1.8,0.7,1.8,1.7s-0.8,1.8-1.8,1.8C499.4,475.3,498.6,474.5,498.6,473.5z
     M499.2,499.8v-21.2h2.3v21.2H499.2z"/>
  <path class="st0" d="M506.8,496.9l1.4-1.7c1.4,1.7,3.9,3.1,6.8,3.1c3.6,0,5.7-1.8,5.7-4.3c0-5.8-13.4-2.5-13.4-10.1
    c0-3.2,2.8-5.9,7.5-5.9c3.6,0,6.1,1.4,7.6,3.1l-1.3,1.6c-1.2-1.7-3.5-2.8-6.3-2.8c-3.3,0-5.3,1.7-5.3,3.9c0,5.3,13.3,2.1,13.3,10.2
    c0,3.4-2.6,6.2-7.9,6.2C511.5,500.3,508.9,499.3,506.8,496.9z"/>
  <path class="st0" d="M543,499.8v-14.4c0-4.1-2.1-5.2-5.1-5.2c-2.7,0-5.5,1.7-6.9,3.6v16h-2.3v-29.2h2.3v11.3
    c1.5-1.8,4.6-3.7,7.6-3.7c4.3,0,6.7,2,6.7,6.8v14.9H543z"/>
  <path class="st0" d="M551.7,498.2c0-1,0.9-1.9,2-1.9c1.1,0,1.9,0.9,1.9,1.9c0,1.1-0.9,1.9-1.9,1.9
    C552.6,500.2,551.7,499.3,551.7,498.2z"/>
</g>
<g>
  <g>
    <circle class="st1" cx="171" cy="226.3" r="4.1"/>
  </g>
  <g>
    <circle class="st1" cx="187.4" cy="240.1" r="4.1"/>
  </g>
  <g>
    <circle class="st1" cx="228.6" cy="246.9" r="4.1"/>
  </g>
  <g>
    <circle class="st1" cx="217.6" cy="193.4" r="4.1"/>
  </g>
  <g>
    <circle class="st1" cx="224.5" cy="155" r="4.1"/>
  </g>
  <g>
    <circle class="st1" cx="243.7" cy="131.7" r="4.1"/>
  </g>
  <g>
    <circle class="st1" cx="220.4" cy="112.5" r="4.1"/>
  </g>
  <g>
    <circle class="st1" cx="275.2" cy="122.1" r="4.1"/>
  </g>
  <g>
    <circle class="st1" cx="227.2" cy="82.3" r="4.1"/>
  </g>
  <g>
    <circle class="st1" cx="187.4" cy="42.5" r="4.1"/>
  </g>
  <g>
    <circle class="st1" cx="172.3" cy="71.3" r="4.1"/>
  </g>
  <g>
    <circle class="st1" cx="201.2" cy="4.1" r="4.1"/>
  </g>
  <g>
    <circle class="st1" cx="235.4" cy="27.4" r="4.1"/>
  </g>
  <g>
    <circle class="st1" cx="262.9" cy="71.3" r="4.1"/>
  </g>
  <g>
    <circle class="st1" cx="308.2" cy="72.7" r="4.1"/>
  </g>
  <g>
    <circle class="st1" cx="330.1" cy="78.2" r="4.1"/>
  </g>
  <g>
    <circle class="st1" cx="353.4" cy="43.9" r="4.1"/>
  </g>
  <g>
    <circle class="st1" cx="361.7" cy="94.7" r="4.1"/>
  </g>
  <g>
    <circle class="st1" cx="416.5" cy="90.5" r="4.1"/>
  </g>
  <g>
    <circle class="st1" cx="438.5" cy="64.5" r="4.1"/>
  </g>
  <g>
    <circle class="st1" cx="452.2" cy="90.5" r="4.1"/>
  </g>
  <g>
    <circle class="st1" cx="327.4" cy="102.9" r="4.1"/>
  </g>
  <g>
    <circle class="st1" cx="297.2" cy="87.8" r="4.1"/>
  </g>
  <g>
    <circle class="st1" cx="297.2" cy="105.6" r="4.1"/>
  </g>
  <g>
    <circle class="st1" cx="260.1" cy="89.2" r="4.1"/>
  </g>
  <g>
    <circle class="st1" cx="249.2" cy="105.6" r="4.1"/>
  </g>
  <g>
    <circle class="st1" cx="199.8" cy="98.8" r="4.1"/>
  </g>
  <g>
    <circle class="st1" cx="179.2" cy="122.1" r="4.1"/>
  </g>
  <g>
    <circle class="st1" cx="161.4" cy="177" r="4.1"/>
  </g>
  <g>
    <circle class="st1" cx="186.1" cy="264.8" r="4.1"/>
  </g>
  <g>
    <circle class="st1" cx="147.7" cy="281.2" r="4.1"/>
  </g>
  <g>
    <circle class="st1" cx="220.4" cy="285.3" r="4.1"/>
  </g>
  <g>
    <circle class="st1" cx="246.4" cy="301.8" r="4.1"/>
  </g>
  <g>
    <circle class="st1" cx="250.5" cy="284" r="4.1"/>
  </g>
  <g>
    <circle class="st1" cx="232.7" cy="267.5" r="4.1"/>
  </g>
  <g>
    <circle class="st1" cx="257.4" cy="263.4" r="4.1"/>
  </g>
  <g>
    <circle class="st1" cx="275.2" cy="307.3" r="4.1"/>
  </g>
  <g>
    <circle class="st1" cx="291.7" cy="279.8" r="4.1"/>
  </g>
  <g>
    <circle class="st1" cx="316.4" cy="303.2" r="4.1"/>
  </g>
  <g>
    <circle class="st1" cx="317.8" cy="273" r="4.1"/>
  </g>
  <g>
    <circle class="st1" cx="345.2" cy="292.2" r="4.1"/>
  </g>
  <g>
    <circle class="st1" cx="343.8" cy="275.7" r="4.1"/>
  </g>
  <g>
    <circle class="st1" cx="326" cy="262" r="4.1"/>
  </g>
  <g>
    <circle class="st1" cx="338.3" cy="245.6" r="4.1"/>
  </g>
  <g>
    <circle class="st1" cx="382.2" cy="263.4" r="4.1"/>
  </g>
  <g>
    <circle class="st1" cx="411" cy="294.9" r="4.1"/>
  </g>
  <g>
    <circle class="st1" cx="474.1" cy="292.2" r="4.1"/>
  </g>
  <g>
    <circle class="st1" cx="534.1" cy="262.2" r="4.1"/>
  </g>
  <g>
    <circle class="st1" cx="502.1" cy="221.2" r="4.1"/>
  </g>
  <g>
    <circle class="st1" cx="120.1" cy="168.2" r="4.1"/>
  </g>
  <g>
    <circle class="st1" cx="60.1" cy="236.2" r="4.1"/>
  </g>
  <g>
    <circle class="st1" cx="109.1" cy="24.2" r="4.1"/>
  </g>
  <g>
    <circle class="st1" cx="302.1" cy="34.2" r="4.1"/>
  </g>
  <g>
    <circle class="st1" cx="365.1" cy="66.2" r="4.1"/>
  </g>
  <g>
    <circle class="st1" cx="97.1" cy="278.2" r="4.1"/>
  </g>
  <g>
    <circle class="st1" cx="441.2" cy="270.2" r="4.1"/>
  </g>
  <g>
    <circle class="st1" cx="367.1" cy="237.3" r="4.1"/>
  </g>
  <g>
    <circle class="st1" cx="400.1" cy="230.5" r="4.1"/>
  </g>
  <g>
    <circle class="st1" cx="372.6" cy="212.6" r="4.1"/>
  </g>
  <g>
    <circle class="st1" cx="405.6" cy="209.9" r="4.1"/>
  </g>
  <g>
    <circle class="st1" cx="402.8" cy="164.6" r="4.1"/>
  </g>
  <g>
    <circle class="st1" cx="394.6" cy="134.4" r="4.1"/>
  </g>
  <g>
    <circle class="st1" cx="379.5" cy="111.1" r="4.1"/>
  </g>
  <g>
    <circle class="st1" cx="360.3" cy="119.3" r="4.1"/>
  </g>
  <g>
    <circle class="st1" cx="338.3" cy="122.1" r="4.1"/>
  </g>
  <g>
    <circle class="st1" cx="382.2" cy="145.4" r="4.1"/>
  </g>
  <g>
    <circle class="st1" cx="363" cy="167.4" r="4.1"/>
  </g>
  <g>
    <circle class="st1" cx="391.8" cy="186.6" r="4.1"/>
  </g>
  <g>
    <circle class="st1" cx="369.9" cy="196.2" r="4.1"/>
  </g>
  <g>
    <circle class="st1" cx="313.6" cy="130.3" r="4.1"/>
  </g>
  <g>
    <circle class="st1" cx="342.5" cy="145.4" r="4.1"/>
  </g>
  <g>
    <circle class="st1" cx="345.2" cy="186.6" r="4.1"/>
  </g>
  <g>
    <circle class="st1" cx="315" cy="187.9" r="4.1"/>
  </g>
  <g>
    <circle class="st1" cx="299.9" cy="166" r="4.1"/>
  </g>
  <g>
    <circle class="st1" cx="289.4" cy="185.4" r="4.1"/>
  </g>
  <g>
    <circle class="st1" cx="339.7" cy="220.9" r="4.1"/>
  </g>
  <g>
    <circle class="st1" cx="315" cy="246.9" r="4.1"/>
  </g>
  <g>
    <circle class="st1" cx="275.2" cy="256.5" r="4.1"/>
  </g>
  <g>
    <circle class="st1" cx="243.7" cy="244.2" r="4.1"/>
  </g>
  <g>
    <circle class="st1" cx="225.8" cy="220.9" r="4.1"/>
  </g>
  <g>
    <circle class="st1" cx="201.2" cy="219.5" r="4.1"/>
  </g>
  <g>
    <circle class="st1" cx="171" cy="198.9" r="4.1"/>
  </g>
  <g>
    <circle class="st1" cx="191.6" cy="167.4" r="4.1"/>
  </g>
  <g>
    <circle class="st1" cx="190.2" cy="190.7" r="4.1"/>
  </g>
  <g>
    <circle class="st1" cx="171" cy="155" r="4.1"/>
  </g>
  <g>
    <circle class="st1" cx="198.4" cy="127.6" r="4.1"/>
  </g>
  <g>
    <circle class="st1" cx="202.5" cy="146.8" r="4.1"/>
  </g>
  <g>
    <circle class="st1" cx="205.3" cy="264.8" r="4.1"/>
  </g>
  <g>
    <polygon class="st1" points="274.3,307.9 289.5,279.4 275,257.1 257.2,264 243.4,244.8 228.1,247.6 225.3,221.4 201.2,220.2 
      187.5,240.7 186.7,240.1 200.7,219.1 226.2,220.5 229,246.4 243.9,243.7 257.6,262.8 275.4,255.9 290.7,279.4 276.1,306.7 
      315.9,302.7 317.3,272.1 344.6,291.2 343.3,276 325.6,262.3 314.1,246.5 337.8,245.1 337.6,219.1 367.5,237 382.2,262.4 
      399.4,230.6 369.5,211.3 404.7,209.4 391.6,187.2 369.9,196.7 344.3,186.8 362.8,166.9 401.6,164.2 381.5,145.4 393.9,134.3 
      379.3,109.6 362.1,95.7 360.8,119.5 342.2,146.7 337.9,122.7 312.6,131.2 326.9,103.5 297.4,106.2 297.4,87.4 328.6,78.2 
      308.4,73.2 257.9,89.9 262.2,72.1 228.2,82.6 249.5,105.2 276.4,122.3 243.6,132.2 220,112.9 200.2,99.7 198.9,128.2 179.6,122.7 
      171.7,154.3 202.6,146.3 225.9,155 191.7,167.8 160.5,177.7 171.2,198.3 190.1,190.2 219,193.1 171.6,226.5 186.4,264.2 
      204.8,264.2 220.3,284.1 232.6,266.5 249.5,283.2 246.9,301.8 245.9,301.7 248.4,283.6 232.8,268.1 220.4,285.8 204.3,265.2 
      185.7,265.2 170.4,226.1 216.2,193.8 190.3,191.2 170.7,199.6 159.1,177.1 191.4,166.9 223.1,155 202.5,147.3 170.3,155.7 
      178.8,121.5 197.9,126.9 199.3,97.9 220.6,112.1 243.8,131.1 274,121.9 248.8,106 226.3,82.1 263.6,70.6 259.3,88.4 308.3,72.2 
      332.4,78.2 298.4,88.2 298.4,105.1 328.6,102.3 314.6,129.5 338.7,121.4 342.7,144.1 359.8,119.2 361.2,93.7 380.1,109 
      395.2,134.5 383,145.4 404,165 363.3,167.8 346.1,186.4 369.9,195.6 392,185.9 406.4,210.3 372.6,212.1 400.7,230.3 382.2,264.4 
      366.8,237.7 338.6,220.8 338.8,246 316,247.4 326.4,261.7 344.3,275.5 345.8,293.2 318.2,273.9 316.9,303.6     "/>
  </g>
  <g>
    <path class="st1" d="M224.5,155.7l-25-25.2l3.9,17.9l-24.9-26.3l20.6-23.3l-27.4-27.4l15.3-29.3l0,0l0,0l13.8-38.7l35.7,24.3
      l-48.8,15.3L173,71.2l27.5,27.5l-20.6,23.3l21.8,23.1l-3.7-17.1l-0.9-0.1l0.8-0.5l0,0l0,0l22.1-15.2l7.2-31.7l16.4,49.3l5.2-24.4
      L259.7,89l2.8-18.2l46.7,1.4l-11.2,15.4l29.7,14.1l2.1-24.3l33.4,17.4l-34.3,8.2l31.5,15.7l19-8.1l0.4,0.9l-19.4,8.3l-34.4-17.2
      l1.1-0.3L296.4,88l10.8-14.8l-43.9-1.3l-2.8,17.6l-10.9,16.4l-5.4,25.8l1.2,0.1l-1.6,1.9l0,0L224.5,155.7z M198.5,128.1l26,26.2
      l18.9-21.7L198.5,128.1z M199.8,127.2l43.3,4.3l-15.8-47.4l-6.5,28.6L199.8,127.2z M330.5,79l-2,23.1l31.7-7.6L330.5,79z
       M201.4,4.9l-13.1,36.8l46-14.4L201.4,4.9z"/>
  </g>
  <g>
    
      <rect x="341.3" y="40.3" transform="matrix(0.8269 0.5623 -0.5623 0.8269 93.4845 -181.6203)" class="st1" width="1" height="41.5"/>
  </g>
  <g>
    <polygon class="st1" points="411,295.6 380.7,261.9 381.5,261.2 411.1,294.2 439.6,268.2 474.4,291.8 473.9,292.6 439.7,269.5    
      "/>
  </g>
  <g>
    <polygon class="st1" points="315,188.4 287,187.3 299.5,165.7 300.4,166.2 288.7,186.4 315,187.4 344.7,186.1 341.9,144 
      360.5,165.3 382.2,143.6 358.3,117.9 394.8,134 394.4,134.9 362.3,120.8 383.6,143.6 360.5,166.7 343,146.8 345.7,187     "/>
  </g>
  <g>
    <path class="st1" d="M275.2,123.1l-15.8-34.4l38.7-1.4L275.2,123.1z M260.9,89.6l14.4,31.4l20.9-32.7L260.9,89.6z"/>
  </g>
  <g>
    <polygon class="st1" points="342.2,145.9 313.3,130.7 296.8,105.9 297.6,105.4 314,129.9 342.7,145    "/>
  </g>
  <g>
    <polygon class="st1" points="275.2,257.1 243.4,244.6 225.7,221.5 187.4,240.7 169.9,226.1 200.8,219 217.1,193.2 223.7,156.5 
      189.6,192 190.9,169.2 171.4,199.2 170.6,198.6 192.2,165.5 190.8,189.4 225.3,153.5 218,193.7 201.5,219.9 172.1,226.6 
      187.5,239.5 226,220.2 244,243.8 275.3,256 314.8,246.5 339.2,220.6 344.9,185.5 372.6,211.9 389.4,188.6 403,162.3 393.4,132.4 
      378.8,110.9 416.2,90.1 438.6,63.6 453,91 417.2,92 417.2,91 451.4,90.1 438.4,65.4 416.9,90.9 416.8,91 380.2,111.3 394.4,132 
      404,162.4 390.2,189.1 372.7,213.4 345.5,187.6 340.2,221.1 315.3,247.4     "/>
  </g>
  <g>
    <polygon class="st1" points="170.8,227.8 159.2,176.9 169.1,154.3 191.4,166.7 202.1,146.5 203,147 191.8,168 169.6,155.7 
      160.3,177 171.2,224.9 189.7,190.4 190.6,190.9     "/>
  </g>
  <g>
    <path class="st1" d="M275.4,307.8l-32.2-5.8l47.3-22.2l-32.8-15.8l-7.3,21.9l-6.9-40.2L233,268.1l-29.3-4.8l23.6-16l-39.4-6.6
      l-1.4,24.4l-38.7,16.6l-0.4-0.9l38.1-16.3l1.4-24.9l42.9,7.2l-23.5,16l26.1,4.3l11.5-24.4l6.8,39.4l6.4-19.2l35.8,17.2l-46.4,21.7
      l28.6,5.2l41.7-33.6l-45.3-17.5l54.3,5.9l12.9-17.2l5.6,30.7l36.2-11.7l-41.7-42.8l35.4-10.5l8.6,53.6l-0.5,0.2l0.1,0.1l-0.7,0.7
      l-0.4-0.4l-37.8,12.2l-5.4-29.6l-11.8,15.8l-47.3-5.1l39.8,15.4L275.4,307.8z M340.6,221.1l40.9,42l0.1,0l-8.3-51.6L340.6,221.1z"
      />
  </g>
</g>
<g>
  <path class="st2" d="M263.1,185.8c0-14.7,11.1-25,25.9-25c14.8,0,25.8,10.3,25.8,25c0,14.7-11,25-25.8,25
    C274.2,210.9,263.1,200.6,263.1,185.8z M302.1,185.8c0-7.9-5.2-14-13.1-14c-8,0-13.2,6.1-13.2,14c0,7.8,5.2,14,13.2,14
    C296.9,199.8,302.1,193.7,302.1,185.8z"/>
  <path class="st2" d="M318.3,210v-35h11.2v4.3c2.3-2.8,6.8-5.2,11-5.2v10.7c-0.7-0.2-1.6-0.3-2.8-0.3c-2.9,0-6.7,1.2-8.2,3.2V210
    H318.3z"/>
  <path class="st2" d="M363.6,210v-3.5c-2.2,2.6-6.4,4.4-10.9,4.4c-5.4,0-12-3.7-12-11.5c0-8.5,6.7-11.3,12-11.3
    c4.6,0,8.8,1.5,10.9,4.1v-3.5c0-3-2.6-5.2-7.1-5.2c-3.5,0-7,1.4-9.8,3.8l-4.1-7.8c4.5-3.8,10.5-5.4,15.9-5.4
    c8.4,0,16.3,3.1,16.3,14V210H363.6z M363.6,201v-3.1c-1.2-1.7-3.8-2.5-6.2-2.5c-2.9,0-5.6,1.3-5.6,4.1c0,2.8,2.7,4.1,5.6,4.1
    C359.9,203.5,362.5,202.7,363.6,201z"/>
  <path class="st2" d="M378.1,192.4c0-11,8.1-18.4,19.1-18.4c7.6,0,12.3,3.3,14.4,6.5l-7.3,6.7c-1.4-2-3.6-3.3-6.6-3.3
    c-4.6,0-8.2,3.2-8.2,8.5c0,5.3,3.6,8.6,8.2,8.6c3,0,5.2-1.5,6.6-3.4l7.3,6.8c-2.1,3-6.7,6.5-14.4,6.5
    C386.3,210.9,378.1,203.4,378.1,192.4z"/>
  <path class="st2" d="M414.1,210v-48.4h11.2V210H414.1z"/>
  <path class="st2" d="M428.6,192.4c0-10.2,7.6-18.4,18.6-18.4c10.4,0,17.9,7.6,17.9,19.5v2.5h-25c0.8,3.1,3.7,5.7,8.8,5.7
    c2.5,0,6.5-1.1,8.6-3l4.9,7.3c-3.5,3.1-9.3,4.6-14.7,4.6C436.9,210.9,428.6,203.8,428.6,192.4z M447.2,183.1
    c-4.9,0-6.7,2.9-7.2,5.4h14.4C454.2,186,452.4,183.1,447.2,183.1z"/>
</g>
</svg>
