<!-- Generator: Adobe Illustrator 18.1.1, SVG Export Plug-In  -->
<svg version="1.1"
   xmlns="http://www.w3.org/2000/svg" xmlns:xlink="http://www.w3.org/1999/xlink" xmlns:a="http://ns.adobe.com/AdobeSVGViewerExtensions/3.0/"
   x="0px" y="0px" width="1106.1px" height="626.6px" viewBox="0 0 1106.1 626.6" style="enable-background:new 0 0 1106.1 626.6;"
   xml:space="preserve">
<style type="text/css">
  .st0{fill:#FFFFFF;}
  .st1{fill:#4D4D4D;}
  .st2{fill:url(#SVGID_1_);}
  .st3{fill:#ED1E79;}
  .st4{fill:#55ACEE;}
  .st5{fill:#3C5A99;}
  .st6{fill:#E6E6E6;}
  .st7{fill:url(#SVGID_2_);}
</style>
<defs>
</defs>
<g>
  <g>
    <path d="M335.7,618.6l2.3-10.3l-6.4-14.9h5.8l4,10.1l8.5-10.1h6.4l-12.9,14.9l-2.3,10.3H335.7z"/>
    <path d="M348.9,610.7c0-5.7,4.4-10.9,10.5-10.9c5.8,0,9.1,3.5,9.1,8.3c0,5.7-4.4,10.9-10.6,10.9
      C352.2,619.1,348.9,615.5,348.9,610.7z M363.6,608.4c0-2.6-1.6-4.3-4.2-4.3c-3.2,0-5.4,3.1-5.4,6.4c0,2.6,1.6,4.3,4.3,4.3
      C361.4,614.8,363.6,611.7,363.6,608.4z"/>
    <path d="M378.8,600.3l-2.4,11c-0.1,0.3-0.2,0.7-0.2,1.1c0,1.7,1.4,2.3,3.1,2.3c1.7,0,3.3-1.1,4.3-2.2l2.7-12.3h4.8l-4,18.3h-4.8
      l0.5-2.3c-1.4,1.4-3.4,2.8-6.1,2.8c-3.5,0-5.7-1.8-5.7-4.7c0-0.3,0.1-1.1,0.2-1.5l2.8-12.6H378.8z"/>
    <path d="M401,615.8l2.7-3.4c1.1,1.3,3.7,2.9,6.4,2.9c1.6,0,2.6-0.9,2.6-1.9c0-2.5-9.3-1.9-9.3-7.3c0-3.2,2.6-6.2,7.5-6.2
      c3.1,0,6,1.2,7.8,2.9l-2.5,3.2c-0.9-1.1-3.1-2.4-5.4-2.4c-1.7,0-2.6,0.8-2.6,1.7c0,2.2,9.3,1.7,9.3,7.3c0,3.5-2.9,6.4-7.9,6.4
      C406.2,619.1,403,617.9,401,615.8z"/>
    <path d="M432,618.6l2.4-11.1c0.1-0.3,0.2-0.8,0.2-1.1c0-1.7-1.4-2.3-3.1-2.3c-1.6,0-3.2,1.1-4.3,2.2l-2.7,12.3h-4.8l5.6-25.2h4.8
      l-2.1,9.3c1.4-1.4,3.4-2.8,6.1-2.8c3.5,0,5.7,1.8,5.7,4.7c0,0.4-0.1,1.1-0.2,1.5l-2.8,12.6H432z"/>
    <path d="M442.3,610.7c0-5.7,4.4-10.9,10.5-10.9c5.8,0,9.1,3.5,9.1,8.3c0,5.7-4.4,10.9-10.6,10.9
      C445.5,619.1,442.3,615.5,442.3,610.7z M456.9,608.4c0-2.6-1.6-4.3-4.2-4.3c-3.2,0-5.4,3.1-5.4,6.4c0,2.6,1.6,4.3,4.3,4.3
      C454.7,614.8,456.9,611.7,456.9,608.4z"/>
    <path d="M472.1,600.3l-2.4,11c-0.1,0.3-0.2,0.7-0.2,1.1c0,1.7,1.4,2.3,3.1,2.3c1.7,0,3.3-1.1,4.3-2.2l2.7-12.3h4.8l-4,18.3h-4.8
      l0.5-2.3c-1.4,1.4-3.4,2.8-6.1,2.8c-3.5,0-5.7-1.8-5.7-4.7c0-0.3,0.1-1.1,0.2-1.5l2.8-12.6H472.1z"/>
    <path d="M485.2,618.6l5.6-25.2h4.8l-5.6,25.2H485.2z"/>
    <path d="M510.9,602.8l2-9.4h4.8l-5.6,25.2h-4.8l0.5-2.3c-1.5,1.8-3.3,2.7-5.5,2.7c-4.1,0-7-2.7-7-7.6c0-5.5,3.4-11.6,9.6-11.6
      C507.5,599.9,509.7,600.9,510.9,602.8z M500.5,610.5c0,2.6,1.7,4.3,4,4.3c1.7,0,3.2-0.9,4.2-2.2l1.4-6.3c-0.8-1.2-2.3-2.1-4.3-2.1
      C502.7,604.2,500.5,607.1,500.5,610.5z"/>
    <path d="M532,616.2l-2.1,9.4h-4.8l5.6-25.2h4.8l-0.5,2.3c1.5-1.8,3.3-2.7,5.5-2.7c4.1,0,6.9,2.7,6.9,7.6c0,5.5-3.4,11.6-9.6,11.6
      C535.4,619.1,533.2,618,532,616.2z M542.4,608.4c0-2.6-1.7-4.3-4-4.3c-1.7,0-3.2,0.9-4.2,2.2l-1.4,6.3c0.8,1.2,2.3,2.1,4.3,2.1
      C540.2,614.8,542.4,611.8,542.4,608.4z"/>
    <path d="M557.5,600.3l-2.4,11c-0.1,0.3-0.2,0.7-0.2,1.1c0,1.7,1.4,2.3,3.1,2.3c1.7,0,3.3-1.1,4.3-2.2l2.7-12.3h4.8l-4,18.3H561
      l0.5-2.3c-1.4,1.4-3.4,2.8-6.1,2.8c-3.5,0-5.7-1.8-5.7-4.7c0-0.3,0.1-1.1,0.2-1.5l2.8-12.6H557.5z"/>
    <path d="M575.9,616.2l-0.5,2.4h-4.8l5.6-25.2h4.8l-2,9.2c1.5-1.8,3.3-2.7,5.5-2.7c4.1,0,6.9,2.7,6.9,7.6c0,5.5-3.4,11.6-9.6,11.6
      C579.3,619.1,577.2,618,575.9,616.2z M586.3,608.4c0-2.6-1.7-4.3-4-4.3c-1.7,0-3.2,0.9-4.2,2.2l-1.4,6.3c0.8,1.2,2.3,2.1,4.3,2.1
      C584.2,614.8,586.3,611.8,586.3,608.4z"/>
    <path d="M592.8,618.6l5.6-25.2h4.8l-5.6,25.2H592.8z"/>
    <path d="M602.3,618.6l4-18.3h4.8l-4,18.3H602.3z M606.9,595.9c0-2.1,1.8-3.3,3.2-3.3c1.5,0,2.6,1.1,2.6,2.5c0,2.1-1.8,3.3-3.3,3.3
      S606.9,597.3,606.9,595.9z"/>
    <path d="M611.3,615.8l2.7-3.4c1.1,1.3,3.7,2.9,6.4,2.9c1.6,0,2.6-0.9,2.6-1.9c0-2.5-9.3-1.9-9.3-7.3c0-3.2,2.6-6.2,7.5-6.2
      c3.1,0,6,1.2,7.8,2.9l-2.5,3.2c-0.9-1.1-3.1-2.4-5.4-2.4c-1.7,0-2.6,0.8-2.6,1.7c0,2.2,9.3,1.7,9.3,7.3c0,3.5-2.9,6.4-7.9,6.4
      C616.5,619.1,613.3,617.9,611.3,615.8z"/>
    <path d="M642.3,618.6l2.4-11.1c0.1-0.3,0.2-0.8,0.2-1.1c0-1.7-1.4-2.3-3.1-2.3c-1.6,0-3.2,1.1-4.3,2.2l-2.7,12.3h-4.8l5.6-25.2
      h4.8l-2.1,9.3c1.4-1.4,3.4-2.8,6.1-2.8c3.5,0,5.7,1.8,5.7,4.7c0,0.4-0.1,1.1-0.2,1.5l-2.8,12.6H642.3z"/>
    <path d="M663.5,615.1c0-0.2,0-0.8,0.2-1.2l2-9.3h-3l0.9-4.2h3l1.1-5h4.8l-1.1,5h3.7l-0.9,4.2h-3.7l-1.8,8c0,0.2,0,0.4,0,0.6
      c0,1,0.6,1.6,1.8,1.6c0.5,0,1.1-0.2,1.3-0.4l0.2,3.9c-0.7,0.5-1.8,0.8-3,0.8C665.7,619.1,663.5,617.8,663.5,615.1z"/>
    <path d="M686.7,618.6l2.4-11.1c0.1-0.3,0.2-0.8,0.2-1.1c0-1.7-1.4-2.3-3.1-2.3c-1.6,0-3.2,1.1-4.3,2.2l-2.7,12.3h-4.8l5.6-25.2
      h4.8l-2.1,9.3c1.4-1.4,3.4-2.8,6.1-2.8c3.5,0,5.7,1.8,5.7,4.7c0,0.4-0.1,1.1-0.2,1.5l-2.8,12.6H686.7z"/>
    <path d="M696.3,618.6l4-18.3h4.8l-4,18.3H696.3z M700.9,595.9c0-2.1,1.8-3.3,3.2-3.3c1.5,0,2.6,1.1,2.6,2.5c0,2.1-1.8,3.3-3.3,3.3
      S700.9,597.3,700.9,595.9z"/>
    <path d="M705.2,615.8l2.7-3.4c1.1,1.3,3.7,2.9,6.4,2.9c1.6,0,2.6-0.9,2.6-1.9c0-2.5-9.3-1.9-9.3-7.3c0-3.2,2.6-6.2,7.5-6.2
      c3.1,0,6,1.2,7.8,2.9l-2.5,3.2c-0.9-1.1-3.1-2.4-5.4-2.4c-1.7,0-2.6,0.8-2.6,1.7c0,2.2,9.3,1.7,9.3,7.3c0,3.5-2.9,6.4-7.9,6.4
      C710.5,619.1,707.3,617.9,705.2,615.8z"/>
    <path d="M723.9,616.2c0-1.8,1.5-3.3,3.4-3.3c1.5,0,2.8,1.3,2.8,2.8c0,1.8-1.6,3.3-3.4,3.3C725.1,619.1,723.9,617.8,723.9,616.2z
       M726,610.4l3-17h5.8l-4.5,17H726z"/>
  </g>
  <g>
    <path d="M307.7,626.6l-1.2-1.2c1.4-0.7,2.8-1.9,3.2-3.2c0,0-0.2,0-0.3,0c-0.9,0-1.6-0.6-1.6-1.7c0-1.2,1.1-2.2,2.3-2.2
      c1.1,0,2,0.8,2,2.2C312.1,622.8,310.1,625.4,307.7,626.6z M313.8,626.6l-1.1-1.2c1.4-0.7,2.7-1.9,3.1-3.2c0,0-0.2,0-0.3,0
      c-0.8,0-1.6-0.6-1.6-1.7c0-1.2,1.1-2.2,2.3-2.2c1.1,0,2,0.8,2,2.2C318.1,622.8,316.1,625.4,313.8,626.6z"/>
  </g>
  <g>
    <path d="M746.2,572.3l1.1,1.2c-1.4,0.7-2.8,2-3.2,3.2c0,0,0.2,0,0.3,0c0.9,0,1.6,0.7,1.6,1.7c0,1.2-1.1,2.2-2.3,2.2
      c-1.1,0-2-0.8-2-2.2C741.8,576.1,743.9,573.5,746.2,572.3z M752.2,572.3l1.2,1.2c-1.4,0.7-2.8,2-3.2,3.2c0,0,0.2,0,0.3,0
      c0.9,0,1.6,0.7,1.6,1.7c0,1.2-1.1,2.2-2.3,2.2c-1.1,0-2-0.8-2-2.2C747.8,576.1,749.9,573.5,752.2,572.3z"/>
  </g>
</g>
<path class="st0" d="M1048.7,376.7H2c-1.1,0-2-0.9-2-2L0,2c0-1.1,0.9-2,2-2l1046.7,0c1.1,0,2,0.9,2,2v372.7
  C1050.7,375.8,1049.8,376.7,1048.7,376.7z"/>
<g>
  <path d="M72,106.4V70.7h4.4v35.6H72z"/>
  <path d="M115.7,106.4V88.8c0-3.3-1.4-5.3-4.8-5.3c-2.7,0-5.5,1.9-6.8,3.9v18.9h-4V88.8c0-3.3-1.3-5.3-4.8-5.3c-2.6,0-5.4,1.9-6.8,4
    v18.8h-4V80.6h4v3.7c1.1-1.7,4.5-4.4,8.4-4.4c3.9,0,6.1,2.1,6.9,4.8c1.4-2.3,4.9-4.8,8.6-4.8c4.7,0,7.2,2.6,7.2,7.8v18.6H115.7z"/>
  <path d="M131.7,102.5v13.7h-4V80.6h4v3.8c1.9-2.6,5.1-4.5,8.7-4.5c6.8,0,11.5,5.1,11.5,13.5c0,8.3-4.7,13.6-11.5,13.6
    C136.9,107,133.8,105.3,131.7,102.5z M147.7,93.4c0-5.7-3.1-9.9-8.3-9.9c-3.1,0-6.3,1.9-7.7,4.1v11.6c1.4,2.2,4.5,4.2,7.7,4.2
    C144.6,103.4,147.7,99.1,147.7,93.4z"/>
  <path d="M156.7,93.4c0-7.5,4.9-13.5,12.8-13.5c7.8,0,12.8,6,12.8,13.5c0,7.5-4.9,13.6-12.8,13.6C161.6,107,156.7,100.9,156.7,93.4z
     M178,93.4c0-5.2-3-9.9-8.5-9.9c-5.5,0-8.5,4.7-8.5,9.9c0,5.3,3,10,8.5,10C175,103.4,178,98.7,178,93.4z"/>
  <path d="M188.8,106.4V80.6h4v4.1c2.1-2.7,5.1-4.7,8.6-4.7v4.1c-0.5-0.1-1-0.1-1.5-0.1c-2.5,0-5.9,2-7,4.1v18.3H188.8z"/>
  <path d="M207.2,101V84.1h-4.3v-3.5h4.3v-7h4.1v7h5.2v3.5h-5.2v16c0,1.9,0.9,3.3,2.6,3.3c1.2,0,2.2-0.5,2.7-1.1l1.2,3
    c-1,1-2.5,1.7-4.8,1.7C209.1,107,207.2,104.8,207.2,101z"/>
  <path d="M238.2,106.4v-2.9c-2.1,2.3-5.1,3.6-8.5,3.6c-4.3,0-9-2.9-9-8.5c0-5.8,4.6-8.5,9-8.5c3.5,0,6.5,1.1,8.5,3.5v-4.6
    c0-3.4-2.8-5.4-6.5-5.4c-3.1,0-5.6,1.1-7.9,3.6l-1.9-2.8c2.8-2.9,6.1-4.3,10.3-4.3c5.5,0,10,2.5,10,8.7v17.7H238.2z M238.2,100.9
    V96c-1.5-2.1-4.3-3.1-7-3.1c-3.8,0-6.4,2.3-6.4,5.6c0,3.3,2.6,5.7,6.4,5.7C233.9,104.1,236.6,103,238.2,100.9z"/>
  <path d="M267.7,106.4V89.5c0-4.6-2.3-6-5.8-6c-3.1,0-6.1,1.9-7.6,4v18.8h-4V80.6h4v3.7c1.8-2.2,5.3-4.4,9.2-4.4
    c5.3,0,8.2,2.7,8.2,8.3v18.1H267.7z"/>
  <path d="M280.5,101V84.1h-4.3v-3.5h4.3v-7h4.1v7h5.2v3.5h-5.2v16c0,1.9,0.9,3.3,2.6,3.3c1.2,0,2.2-0.5,2.7-1.1l1.2,3
    c-1,1-2.5,1.7-4.8,1.7C282.4,107,280.5,104.8,280.5,101z"/>
  <path d="M294.6,103.9c0-1.6,1.3-2.9,2.9-2.9c1.6,0,2.9,1.3,2.9,2.9c0,1.5-1.3,2.9-2.9,2.9C295.9,106.9,294.6,105.5,294.6,103.9z
     M295.9,96.4L295,70.7h5l-0.9,25.6H295.9z"/>
  <path d="M321.7,106.4V70.7H336c7.2,0,11.2,4.9,11.2,10.7s-4.1,10.7-11.2,10.7h-9.9v14.1H321.7z M342.5,81.5c0-4-2.9-6.8-7.1-6.8
    h-9.3v13.6h9.3C339.7,88.3,342.5,85.5,342.5,81.5z"/>
  <path d="M367.9,106.4v-2.9c-2.1,2.3-5.1,3.6-8.5,3.6c-4.3,0-9-2.9-9-8.5c0-5.8,4.6-8.5,9-8.5c3.5,0,6.5,1.1,8.5,3.5v-4.6
    c0-3.4-2.8-5.4-6.5-5.4c-3.1,0-5.6,1.1-7.9,3.6l-1.9-2.8c2.8-2.9,6.1-4.3,10.3-4.3c5.5,0,10,2.5,10,8.7v17.7H367.9z M367.9,100.9
    V96c-1.5-2.1-4.3-3.1-7-3.1c-3.8,0-6.4,2.3-6.4,5.6c0,3.3,2.6,5.7,6.4,5.7C363.6,104.1,366.3,103,367.9,100.9z"/>
  <path d="M397.4,106.4V89.5c0-4.6-2.3-6-5.8-6c-3.1,0-6.1,1.9-7.6,4v18.8h-4V80.6h4v3.7c1.8-2.2,5.3-4.4,9.2-4.4
    c5.3,0,8.2,2.7,8.2,8.3v18.1H397.4z"/>
  <path d="M425.5,106.4v-2.9c-2.1,2.3-5.1,3.6-8.5,3.6c-4.3,0-9-2.9-9-8.5c0-5.8,4.6-8.5,9-8.5c3.5,0,6.5,1.1,8.5,3.5v-4.6
    c0-3.4-2.8-5.4-6.5-5.4c-3.1,0-5.6,1.1-7.9,3.6l-1.9-2.8c2.8-2.9,6.1-4.3,10.3-4.3c5.5,0,10,2.5,10,8.7v17.7H425.5z M425.5,100.9
    V96c-1.5-2.1-4.3-3.1-7-3.1c-3.8,0-6.4,2.3-6.4,5.6c0,3.3,2.6,5.7,6.4,5.7C421.3,104.1,424,103,425.5,100.9z"/>
  <path d="M468.7,106.4V88.8c0-3.3-1.4-5.3-4.8-5.3c-2.7,0-5.5,1.9-6.8,3.9v18.9h-4V88.8c0-3.3-1.3-5.3-4.8-5.3c-2.6,0-5.4,1.9-6.8,4
    v18.8h-4V80.6h4v3.7c1.1-1.7,4.5-4.4,8.4-4.4c3.9,0,6.1,2.1,6.9,4.8c1.4-2.3,4.9-4.8,8.6-4.8c4.7,0,7.2,2.6,7.2,7.8v18.6H468.7z"/>
  <path d="M496.9,106.4v-2.9c-2.1,2.3-5.1,3.6-8.5,3.6c-4.3,0-9-2.9-9-8.5c0-5.8,4.6-8.5,9-8.5c3.5,0,6.5,1.1,8.5,3.5v-4.6
    c0-3.4-2.8-5.4-6.5-5.4c-3.1,0-5.6,1.1-7.9,3.6l-1.9-2.8c2.8-2.9,6.1-4.3,10.3-4.3c5.5,0,10,2.5,10,8.7v17.7H496.9z M496.9,100.9
    V96c-1.5-2.1-4.3-3.1-7-3.1c-3.8,0-6.4,2.3-6.4,5.6c0,3.3,2.6,5.7,6.4,5.7C492.6,104.1,495.3,103,496.9,100.9z"/>
  <path d="M522.9,106.4V70.7h14.3c7.2,0,11.2,4.9,11.2,10.7s-4.1,10.7-11.2,10.7h-9.9v14.1H522.9z M543.8,81.5c0-4-2.9-6.8-7.1-6.8
    h-9.3v13.6h9.3C540.9,88.3,543.8,85.5,543.8,81.5z"/>
  <path d="M569.1,106.4v-2.9c-2.1,2.3-5.1,3.6-8.5,3.6c-4.3,0-9-2.9-9-8.5c0-5.8,4.6-8.5,9-8.5c3.5,0,6.5,1.1,8.5,3.5v-4.6
    c0-3.4-2.8-5.4-6.5-5.4c-3.1,0-5.6,1.1-7.9,3.6l-1.9-2.8c2.8-2.9,6.1-4.3,10.3-4.3c5.5,0,10,2.5,10,8.7v17.7H569.1z M569.1,100.9
    V96c-1.5-2.1-4.3-3.1-7-3.1c-3.8,0-6.4,2.3-6.4,5.6c0,3.3,2.6,5.7,6.4,5.7C564.9,104.1,567.6,103,569.1,100.9z"/>
  <path d="M585.2,102.5v13.7h-4V80.6h4v3.8c1.9-2.6,5.1-4.5,8.7-4.5c6.8,0,11.5,5.1,11.5,13.5c0,8.3-4.7,13.6-11.5,13.6
    C590.4,107,587.3,105.3,585.2,102.5z M601.2,93.4c0-5.7-3.1-9.9-8.3-9.9c-3.1,0-6.3,1.9-7.7,4.1v11.6c1.4,2.2,4.5,4.2,7.7,4.2
    C598.1,103.4,601.2,99.1,601.2,93.4z"/>
  <path d="M610.2,93.4c0-7.5,5.3-13.5,12.7-13.5c7.8,0,12.4,6.1,12.4,13.8v1h-20.8c0.3,4.9,3.7,8.9,9.2,8.9c3,0,5.9-1.2,8-3.3
    l1.9,2.6c-2.6,2.6-6.1,4-10.2,4C615.7,107,610.2,101.5,610.2,93.4z M622.9,83.2c-5.5,0-8.2,4.6-8.4,8.5h16.9
    C631.3,88,628.8,83.2,622.9,83.2z"/>
  <path d="M641.8,106.4V80.6h4v4.1c2.1-2.7,5.1-4.7,8.6-4.7v4.1c-0.5-0.1-1-0.1-1.5-0.1c-2.5,0-5.9,2-7,4.1v18.3H641.8z"/>
  <path d="M657.2,102.9l2-2.9c1.7,2,5,3.7,8.5,3.7c3.9,0,6.1-1.9,6.1-4.4c0-6.2-16-2.4-16-12c0-4.1,3.4-7.4,9.6-7.4
    c4.4,0,7.5,1.7,9.6,3.7l-1.9,2.8c-1.5-1.9-4.3-3.3-7.7-3.3c-3.5,0-5.7,1.8-5.7,4.1c0,5.6,16,1.9,16,12c0,4.3-3.5,7.8-10.1,7.8
    C663.4,107,659.8,105.7,657.2,102.9z"/>
  <path d="M695.7,95.2v-3.5h28.4v3.5H695.7z"/>
  <path d="M749,106.4V76.6l-5.7,6.1l-2.7-2.7l8.9-9.2h3.9v35.6H749z"/>
  <path d="M760.4,88.6c0-8.7,3.8-18.4,13.6-18.4c9.7,0,13.6,9.7,13.6,18.4c0,8.6-3.9,18.4-13.6,18.4C764.2,107,760.4,97.2,760.4,88.6
    z M783,88.6c0-7.1-2.3-14.4-9.1-14.4c-6.8,0-9.1,7.3-9.1,14.4s2.3,14.5,9.1,14.5C780.7,103,783,95.7,783,88.6z"/>
  <path d="M808.9,101V84.1h-4.3v-3.5h4.3v-7h4.1v7h5.2v3.5H813v16c0,1.9,0.9,3.3,2.6,3.3c1.2,0,2.2-0.5,2.7-1.1l1.2,3
    c-1,1-2.5,1.7-4.8,1.7C810.8,107,808.9,104.8,808.9,101z"/>
  <path d="M841.3,106.4v-17c0-4.6-2.3-5.9-5.8-5.9c-3.1,0-6.1,1.9-7.6,4v18.8h-4V70.7h4v13.6c1.8-2.2,5.3-4.4,9.2-4.4
    c5.4,0,8.2,2.6,8.2,8.2v18.2H841.3z"/>
  <path d="M852.6,74.2c0-1.5,1.2-2.7,2.7-2.7c1.5,0,2.7,1.2,2.7,2.7s-1.2,2.7-2.7,2.7C853.8,76.9,852.6,75.7,852.6,74.2z
     M853.3,106.4V80.6h4v25.8H853.3z"/>
  <path d="M882.7,106.4V89.5c0-4.6-2.3-6-5.8-6c-3.1,0-6.1,1.9-7.6,4v18.8h-4V80.6h4v3.7c1.8-2.2,5.3-4.4,9.2-4.4
    c5.3,0,8.2,2.7,8.2,8.3v18.1H882.7z"/>
  <path d="M894.7,112.9l2-2.9c2.1,2.5,4.7,3.5,8.4,3.5c4.3,0,8.3-2.1,8.3-7.5v-3.9c-1.9,2.6-5.1,4.6-8.7,4.6c-6.7,0-11.5-5-11.5-13.3
    c0-8.3,4.7-13.4,11.5-13.4c3.5,0,6.6,1.7,8.7,4.5v-3.9h4V106c0,8.2-6,10.8-12.3,10.8C900.8,116.8,897.8,116,894.7,112.9z
     M913.4,98.9V87.6c-1.4-2.2-4.5-4.1-7.7-4.1c-5.2,0-8.3,4.1-8.3,9.8c0,5.7,3.1,9.8,8.3,9.8C908.9,103.1,912,101.2,913.4,98.9z"/>
  <path d="M923.3,102.9l2-2.9c1.7,2,5,3.7,8.5,3.7c3.9,0,6.1-1.9,6.1-4.4c0-6.2-16-2.4-16-12c0-4.1,3.4-7.4,9.6-7.4
    c4.4,0,7.5,1.7,9.6,3.7l-1.9,2.8c-1.5-1.9-4.3-3.3-7.7-3.3c-3.5,0-5.7,1.8-5.7,4.1c0,5.6,16,1.9,16,12c0,4.3-3.5,7.8-10.1,7.8
    C929.4,107,925.9,105.7,923.3,102.9z"/>
  <path d="M72.6,165v-16.9h-4.3v-3.5h4.3v-7h4.1v7h5.2v3.5h-5.2v16c0,1.9,0.9,3.3,2.6,3.3c1.2,0,2.2-0.5,2.7-1.1l1.2,3
    c-1,1-2.5,1.7-4.8,1.7C74.5,171,72.6,168.9,72.6,165z"/>
  <path d="M86,157.5c0-7.5,4.9-13.5,12.8-13.5c7.8,0,12.8,6,12.8,13.5c0,7.5-4.9,13.6-12.8,13.6C90.9,171,86,165,86,157.5z
     M107.3,157.5c0-5.2-3-9.9-8.5-9.9c-5.5,0-8.5,4.7-8.5,9.9c0,5.3,3,10,8.5,10C104.3,167.5,107.3,162.8,107.3,157.5z"/>
  <path d="M149.4,170.4l-9.2-11.6l-4.3,4.2v7.4h-4v-35.6h4v23.5l13.6-13.7h5.1l-11.4,11.7l11.5,14.1H149.4z"/>
  <path d="M176.7,170.4v-16.9c0-4.6-2.3-6-5.8-6c-3.1,0-6.1,1.9-7.6,4v18.8h-4v-25.8h4v3.7c1.8-2.2,5.3-4.4,9.2-4.4
    c5.3,0,8.2,2.7,8.2,8.3v18.1H176.7z"/>
  <path d="M187.3,157.5c0-7.5,4.9-13.5,12.8-13.5c7.8,0,12.8,6,12.8,13.5c0,7.5-4.9,13.6-12.8,13.6C192.2,171,187.3,165,187.3,157.5z
     M208.6,157.5c0-5.2-3-9.9-8.5-9.9c-5.5,0-8.5,4.7-8.5,9.9c0,5.3,3,10,8.5,10C205.5,167.5,208.6,162.8,208.6,157.5z"/>
  <path d="M241.6,170.4l-6.7-20.7l-6.7,20.7h-4l-8.2-25.8h4.2l6.3,20.5l6.8-20.5h3.5l6.7,20.5l6.3-20.5h4.2l-8.2,25.8H241.6z"/>
  <path d="M288.4,170.4v-2.9c-2.1,2.3-5.1,3.6-8.5,3.6c-4.3,0-9-2.9-9-8.5c0-5.8,4.6-8.5,9-8.5c3.5,0,6.5,1.1,8.5,3.5v-4.6
    c0-3.4-2.8-5.4-6.5-5.4c-3.1,0-5.6,1.1-7.9,3.6l-1.9-2.8c2.8-2.9,6.1-4.3,10.3-4.3c5.5,0,10,2.5,10,8.7v17.7H288.4z M288.4,165
    v-4.9c-1.5-2.1-4.3-3.1-7-3.1c-3.8,0-6.4,2.3-6.4,5.6c0,3.3,2.6,5.7,6.4,5.7C284.1,168.2,286.9,167.1,288.4,165z"/>
  <path d="M300.5,170.4v-35.6h4v13.7c2.1-2.8,5.2-4.5,8.7-4.5c6.8,0,11.5,5.3,11.5,13.6c0,8.4-4.8,13.5-11.5,13.5
    c-3.6,0-6.8-1.9-8.7-4.5v3.8H300.5z M312.2,167.5c5.2,0,8.3-4.2,8.3-9.9c0-5.7-3.1-10-8.3-10c-3.2,0-6.4,1.9-7.7,4.2v11.7
    C305.9,165.7,309,167.5,312.2,167.5z"/>
  <path d="M329.7,157.5c0-7.5,4.9-13.5,12.8-13.5c7.8,0,12.8,6,12.8,13.5c0,7.5-4.9,13.6-12.8,13.6C334.6,171,329.7,165,329.7,157.5z
     M351,157.5c0-5.2-3-9.9-8.5-9.9c-5.5,0-8.5,4.7-8.5,9.9c0,5.3,3,10,8.5,10C347.9,167.5,351,162.8,351,157.5z"/>
  <path d="M379.1,170.4v-3.6c-2,2.2-5.3,4.3-9.2,4.3c-5.4,0-8.2-2.7-8.2-8.2v-18.2h4v17c0,4.5,2.3,5.9,5.8,5.9c3.1,0,6.1-1.8,7.6-3.9
    v-18.9h4v25.8H379.1z"/>
  <path d="M391.9,165v-16.9h-4.3v-3.5h4.3v-7h4.1v7h5.2v3.5H396v16c0,1.9,0.9,3.3,2.6,3.3c1.2,0,2.2-0.5,2.7-1.1l1.2,3
    c-1,1-2.5,1.7-4.8,1.7C393.8,171,391.9,168.9,391.9,165z"/>
  <path d="M421.4,165v-16.9h-4.3v-3.5h4.3v-7h4.1v7h5.2v3.5h-5.2v16c0,1.9,0.9,3.3,2.6,3.3c1.2,0,2.2-0.5,2.7-1.1l1.2,3
    c-1,1-2.5,1.7-4.8,1.7C423.4,171,421.4,168.9,421.4,165z"/>
  <path d="M453.8,170.4v-17c0-4.6-2.3-5.9-5.8-5.9c-3.1,0-6.1,1.9-7.6,4v18.8h-4v-35.6h4v13.6c1.8-2.2,5.3-4.4,9.2-4.4
    c5.4,0,8.2,2.6,8.2,8.2v18.2H453.8z"/>
  <path d="M464.3,157.5c0-7.5,5.3-13.5,12.7-13.5c7.8,0,12.4,6.1,12.4,13.8v1h-20.8c0.3,4.9,3.7,8.9,9.2,8.9c3,0,5.9-1.2,8-3.3
    l1.9,2.6c-2.6,2.6-6.1,4-10.2,4C469.8,171,464.3,165.6,464.3,157.5z M477,147.3c-5.5,0-8.2,4.6-8.4,8.5h16.9
    C485.4,152,482.8,147.3,477,147.3z"/>
  <path d="M527,170.4v-17.5c0-3.3-1.4-5.3-4.8-5.3c-2.7,0-5.5,1.9-6.8,3.9v18.9h-4v-17.5c0-3.3-1.3-5.3-4.8-5.3c-2.6,0-5.4,1.9-6.8,4
    v18.8h-4v-25.8h4v3.7c1.1-1.7,4.5-4.4,8.4-4.4c3.9,0,6.1,2.1,6.9,4.8c1.4-2.3,4.9-4.8,8.6-4.8c4.7,0,7.2,2.6,7.2,7.8v18.6H527z"/>
  <path d="M561.6,170.4l3.3-9.7h-5.9l-3.2,9.7h-3.3l3.3-9.7H550l0.9-2.8h5.7l3.5-10.6h-5.8l0.9-2.8h5.9l3.2-9.7h3.3l-3.2,9.7h5.9
    l3.2-9.7h3.3l-3.3,9.7h5.7l-0.8,2.8h-5.8l-3.6,10.6h5.9l-0.9,2.8h-6l-3.2,9.7H561.6z M569.3,147.3h-5.9l-3.6,10.6h5.9L569.3,147.3z
    "/>
  <path d="M588.4,166.5v13.7h-4v-35.6h4v3.8c1.9-2.6,5.1-4.5,8.7-4.5c6.8,0,11.5,5.1,11.5,13.5c0,8.3-4.7,13.6-11.5,13.6
    C593.5,171,590.5,169.3,588.4,166.5z M604.3,157.5c0-5.7-3.1-9.9-8.3-9.9c-3.1,0-6.3,1.9-7.7,4.1v11.6c1.4,2.2,4.5,4.2,7.7,4.2
    C601.2,167.5,604.3,163.2,604.3,157.5z"/>
  <path d="M631,170.4v-2.9c-2.1,2.3-5.1,3.6-8.5,3.6c-4.3,0-9-2.9-9-8.5c0-5.8,4.6-8.5,9-8.5c3.5,0,6.5,1.1,8.5,3.5v-4.6
    c0-3.4-2.8-5.4-6.5-5.4c-3.1,0-5.6,1.1-7.9,3.6l-1.9-2.8c2.8-2.9,6.1-4.3,10.3-4.3c5.5,0,10,2.5,10,8.7v17.7H631z M631,165v-4.9
    c-1.5-2.1-4.3-3.1-7-3.1c-3.8,0-6.4,2.3-6.4,5.6c0,3.3,2.6,5.7,6.4,5.7C626.7,168.2,629.5,167.1,631,165z"/>
  <path d="M660.5,170.4v-16.9c0-4.6-2.3-6-5.8-6c-3.1,0-6.1,1.9-7.6,4v18.8h-4v-25.8h4v3.7c1.8-2.2,5.3-4.4,9.2-4.4
    c5.3,0,8.2,2.7,8.2,8.3v18.1H660.5z"/>
  <path d="M688.7,170.4v-2.9c-2.1,2.3-5.1,3.6-8.5,3.6c-4.3,0-9-2.9-9-8.5c0-5.8,4.6-8.5,9-8.5c3.5,0,6.5,1.1,8.5,3.5v-4.6
    c0-3.4-2.8-5.4-6.5-5.4c-3.1,0-5.6,1.1-7.9,3.6l-1.9-2.8c2.8-2.9,6.1-4.3,10.3-4.3c5.5,0,10,2.5,10,8.7v17.7H688.7z M688.7,165
    v-4.9c-1.5-2.1-4.3-3.1-7-3.1c-3.8,0-6.4,2.3-6.4,5.6c0,3.3,2.6,5.7,6.4,5.7C684.4,168.2,687.1,167.1,688.7,165z"/>
  <path d="M731.8,170.4v-17.5c0-3.3-1.4-5.3-4.8-5.3c-2.7,0-5.5,1.9-6.8,3.9v18.9h-4v-17.5c0-3.3-1.3-5.3-4.8-5.3
    c-2.6,0-5.4,1.9-6.8,4v18.8h-4v-25.8h4v3.7c1.1-1.7,4.5-4.4,8.4-4.4c3.9,0,6.1,2.1,6.9,4.8c1.4-2.3,4.9-4.8,8.6-4.8
    c4.7,0,7.2,2.6,7.2,7.8v18.6H731.8z"/>
  <path d="M760,170.4v-2.9c-2.1,2.3-5.1,3.6-8.5,3.6c-4.3,0-9-2.9-9-8.5c0-5.8,4.6-8.5,9-8.5c3.5,0,6.5,1.1,8.5,3.5v-4.6
    c0-3.4-2.8-5.4-6.5-5.4c-3.1,0-5.6,1.1-7.9,3.6l-1.9-2.8c2.8-2.9,6.1-4.3,10.3-4.3c5.5,0,10,2.5,10,8.7v17.7H760z M760,165v-4.9
    c-1.5-2.1-4.3-3.1-7-3.1c-3.8,0-6.4,2.3-6.4,5.6c0,3.3,2.6,5.7,6.4,5.7C755.7,168.2,758.4,167.1,760,165z"/>
  <path d="M776,166.5v13.7h-4v-35.6h4v3.8c1.9-2.6,5.1-4.5,8.7-4.5c6.8,0,11.5,5.1,11.5,13.5c0,8.3-4.7,13.6-11.5,13.6
    C781.2,171,778.2,169.3,776,166.5z M792,157.5c0-5.7-3.1-9.9-8.3-9.9c-3.1,0-6.3,1.9-7.7,4.1v11.6c1.4,2.2,4.5,4.2,7.7,4.2
    C788.9,167.5,792,163.2,792,157.5z"/>
  <path d="M818.7,170.4v-2.9c-2.1,2.3-5.1,3.6-8.5,3.6c-4.3,0-9-2.9-9-8.5c0-5.8,4.6-8.5,9-8.5c3.5,0,6.5,1.1,8.5,3.5v-4.6
    c0-3.4-2.8-5.4-6.5-5.4c-3.1,0-5.6,1.1-7.9,3.6l-1.9-2.8c2.8-2.9,6.1-4.3,10.3-4.3c5.5,0,10,2.5,10,8.7v17.7H818.7z M818.7,165
    v-4.9c-1.5-2.1-4.3-3.1-7-3.1c-3.8,0-6.4,2.3-6.4,5.6c0,3.3,2.6,5.7,6.4,5.7C814.4,168.2,817.1,167.1,818.7,165z"/>
  <path d="M834.8,166.5v13.7h-4v-35.6h4v3.8c1.9-2.6,5.1-4.5,8.7-4.5c6.8,0,11.5,5.1,11.5,13.5c0,8.3-4.7,13.6-11.5,13.6
    C839.9,171,836.9,169.3,834.8,166.5z M850.7,157.5c0-5.7-3.1-9.9-8.3-9.9c-3.1,0-6.3,1.9-7.7,4.1v11.6c1.4,2.2,4.5,4.2,7.7,4.2
    C847.6,167.5,850.7,163.2,850.7,157.5z"/>
  <path d="M859.8,157.5c0-7.5,5.3-13.5,12.7-13.5c7.8,0,12.4,6.1,12.4,13.8v1h-20.8c0.3,4.9,3.7,8.9,9.2,8.9c3,0,5.9-1.2,8-3.3
    l1.9,2.6c-2.6,2.6-6.1,4-10.2,4C865.3,171,859.8,165.6,859.8,157.5z M872.4,147.3c-5.5,0-8.2,4.6-8.4,8.5h16.9
    C880.9,152,878.3,147.3,872.4,147.3z"/>
  <path d="M891.3,170.4v-25.8h4v4.1c2.1-2.7,5.1-4.7,8.6-4.7v4.1c-0.5-0.1-1-0.1-1.5-0.1c-2.5,0-5.9,2-7,4.1v18.3H891.3z"/>
  <path d="M906.8,167l2-2.9c1.7,2,5,3.7,8.5,3.7c3.9,0,6.1-1.9,6.1-4.4c0-6.2-16-2.4-16-12c0-4.1,3.4-7.4,9.6-7.4
    c4.4,0,7.5,1.7,9.6,3.7l-1.9,2.8c-1.5-1.9-4.3-3.3-7.7-3.3c-3.5,0-5.7,1.8-5.7,4.1c0,5.6,16,1.9,16,12c0,4.3-3.5,7.8-10.1,7.8
    C912.9,171,909.4,169.7,906.8,167z"/>
  <path d="M72.6,229.1v-16.9h-4.3v-3.5h4.3v-7h4.1v7h5.2v3.5h-5.2v16c0,1.9,0.9,3.3,2.6,3.3c1.2,0,2.2-0.5,2.7-1.1l1.2,3
    c-1,1-2.5,1.7-4.8,1.7C74.5,235.1,72.6,232.9,72.6,229.1z"/>
  <path d="M104.9,234.5v-17c0-4.6-2.3-5.9-5.8-5.9c-3.1,0-6.1,1.9-7.6,4v18.8h-4v-35.6h4v13.6c1.8-2.2,5.3-4.4,9.2-4.4
    c5.4,0,8.2,2.6,8.2,8.2v18.2H104.9z"/>
  <path d="M115.5,221.5c0-7.5,5.3-13.5,12.7-13.5c7.8,0,12.4,6.1,12.4,13.8v1h-20.8c0.3,4.9,3.7,8.9,9.2,8.9c3,0,5.9-1.2,8-3.3
    l1.9,2.6c-2.6,2.6-6.1,4-10.2,4C121,235.1,115.5,229.6,115.5,221.5z M128.1,211.4c-5.5,0-8.2,4.6-8.4,8.5h16.9
    C136.5,216.1,134,211.4,128.1,211.4z"/>
  <path d="M160.8,234.5v-35.6h4v13.7c2.1-2.8,5.2-4.5,8.7-4.5c6.8,0,11.5,5.3,11.5,13.6c0,8.4-4.8,13.5-11.5,13.5
    c-3.6,0-6.8-1.9-8.7-4.5v3.8H160.8z M172.6,231.5c5.2,0,8.3-4.2,8.3-9.9c0-5.7-3.1-10-8.3-10c-3.2,0-6.4,1.9-7.7,4.2v11.7
    C166.2,229.7,169.4,231.5,172.6,231.5z"/>
  <path d="M190,221.5c0-7.5,5.3-13.5,12.7-13.5c7.8,0,12.4,6.1,12.4,13.8v1h-20.8c0.3,4.9,3.7,8.9,9.2,8.9c3,0,5.9-1.2,8-3.3l1.9,2.6
    c-2.6,2.6-6.1,4-10.2,4C195.5,235.1,190,229.6,190,221.5z M202.7,211.4c-5.5,0-8.2,4.6-8.4,8.5h16.9
    C211.1,216.1,208.6,211.4,202.7,211.4z"/>
  <path d="M219.4,231l2-2.9c1.7,2,5,3.7,8.5,3.7c3.9,0,6.1-1.9,6.1-4.4c0-6.2-16-2.4-16-12c0-4.1,3.4-7.4,9.6-7.4
    c4.4,0,7.5,1.7,9.6,3.7l-1.9,2.8c-1.5-1.9-4.3-3.3-7.7-3.3c-3.5,0-5.7,1.8-5.7,4.1c0,5.6,16,1.9,16,12c0,4.3-3.5,7.8-10.1,7.8
    C225.5,235.1,222,233.8,219.4,231z"/>
  <path d="M247.2,229.1v-16.9h-4.3v-3.5h4.3v-7h4.1v7h5.2v3.5h-5.2v16c0,1.9,0.9,3.3,2.6,3.3c1.2,0,2.2-0.5,2.7-1.1l1.2,3
    c-1,1-2.5,1.7-4.8,1.7C249.1,235.1,247.2,232.9,247.2,229.1z"/>
  <path d="M275.9,234.5v-25.8h4v4.1c2.1-2.7,5.1-4.7,8.6-4.7v4.1c-0.5-0.1-1-0.1-1.5-0.1c-2.5,0-5.9,2-7,4.1v18.3H275.9z"/>
  <path d="M292,221.5c0-7.5,5.3-13.5,12.7-13.5c7.8,0,12.4,6.1,12.4,13.8v1h-20.8c0.3,4.9,3.7,8.9,9.2,8.9c3,0,5.9-1.2,8-3.3l1.9,2.6
    c-2.6,2.6-6.1,4-10.2,4C297.5,235.1,292,229.6,292,221.5z M304.7,211.4c-5.5,0-8.2,4.6-8.4,8.5h16.9
    C313.1,216.1,310.6,211.4,304.7,211.4z"/>
  <path d="M321.4,231l2-2.9c1.7,2,5,3.7,8.5,3.7c3.9,0,6.1-1.9,6.1-4.4c0-6.2-16-2.4-16-12c0-4.1,3.4-7.4,9.6-7.4
    c4.4,0,7.5,1.7,9.6,3.7l-1.9,2.8c-1.5-1.9-4.3-3.3-7.7-3.3c-3.5,0-5.7,1.8-5.7,4.1c0,5.6,16,1.9,16,12c0,4.3-3.5,7.8-10.1,7.8
    C327.5,235.1,324,233.8,321.4,231z"/>
  <path d="M346.2,231l2-2.9c1.7,2,5,3.7,8.5,3.7c3.9,0,6.1-1.9,6.1-4.4c0-6.2-16-2.4-16-12c0-4.1,3.4-7.4,9.6-7.4
    c4.4,0,7.5,1.7,9.6,3.7l-1.9,2.8c-1.5-1.9-4.3-3.3-7.7-3.3c-3.5,0-5.7,1.8-5.7,4.1c0,5.6,16,1.9,16,12c0,4.3-3.5,7.8-10.1,7.8
    C352.4,235.1,348.8,233.8,346.2,231z"/>
  <path d="M371.7,221.5c0-7.5,4.9-13.5,12.8-13.5c7.8,0,12.8,6,12.8,13.5c0,7.5-4.9,13.6-12.8,13.6
    C376.7,235.1,371.7,229,371.7,221.5z M393,221.5c0-5.2-3-9.9-8.5-9.9c-5.5,0-8.5,4.7-8.5,9.9c0,5.3,3,10,8.5,10
    C390,231.5,393,226.8,393,221.5z"/>
  <path d="M421.2,234.5v-3.6c-2,2.2-5.3,4.3-9.2,4.3c-5.4,0-8.2-2.7-8.2-8.2v-18.2h4v17c0,4.5,2.3,5.9,5.8,5.9c3.1,0,6.1-1.8,7.6-3.9
    v-18.9h4v25.8H421.2z"/>
  <path d="M433.2,234.5v-25.8h4v4.1c2.1-2.7,5.1-4.7,8.6-4.7v4.1c-0.5-0.1-1-0.1-1.5-0.1c-2.5,0-5.9,2-7,4.1v18.3H433.2z"/>
  <path d="M449.3,221.5c0-7.6,5.2-13.5,12.9-13.5c4.7,0,7.5,1.9,9.4,4.5l-2.7,2.4c-1.7-2.3-3.9-3.3-6.6-3.3c-5.4,0-8.9,4.2-8.9,9.9
    c0,5.7,3.5,10,8.9,10c2.7,0,4.9-1.1,6.6-3.4l2.7,2.5c-2,2.6-4.8,4.5-9.4,4.5C454.5,235.1,449.3,229.2,449.3,221.5z"/>
  <path d="M475.8,221.5c0-7.5,5.3-13.5,12.7-13.5c7.8,0,12.4,6.1,12.4,13.8v1H480c0.3,4.9,3.7,8.9,9.2,8.9c3,0,5.9-1.2,8-3.3l1.9,2.6
    c-2.6,2.6-6.1,4-10.2,4C481.3,235.1,475.8,229.6,475.8,221.5z M488.4,211.4c-5.5,0-8.2,4.6-8.4,8.5h16.9
    C496.9,216.1,494.3,211.4,488.4,211.4z"/>
  <path d="M519.7,221.5c0-7.5,4.9-13.5,12.8-13.5c7.8,0,12.8,6,12.8,13.5c0,7.5-4.9,13.6-12.8,13.6
    C524.6,235.1,519.7,229,519.7,221.5z M541,221.5c0-5.2-3-9.9-8.5-9.9c-5.5,0-8.5,4.7-8.5,9.9c0,5.3,3,10,8.5,10
    C537.9,231.5,541,226.8,541,221.5z"/>
  <path d="M569.1,234.5v-16.9c0-4.6-2.3-6-5.8-6c-3.1,0-6.1,1.9-7.6,4v18.8h-4v-25.8h4v3.7c1.8-2.2,5.3-4.4,9.2-4.4
    c5.3,0,8.2,2.7,8.2,8.3v18.1H569.1z"/>
  <path d="M595.8,229.1v-16.9h-4.3v-3.5h4.3v-7h4.1v7h5.2v3.5h-5.2v16c0,1.9,0.9,3.3,2.6,3.3c1.2,0,2.2-0.5,2.7-1.1l1.2,3
    c-1,1-2.5,1.7-4.8,1.7C597.7,235.1,595.8,232.9,595.8,229.1z"/>
  <path d="M628.1,234.5v-17c0-4.6-2.3-5.9-5.8-5.9c-3.1,0-6.1,1.9-7.6,4v18.8h-4v-35.6h4v13.6c1.8-2.2,5.3-4.4,9.2-4.4
    c5.4,0,8.2,2.6,8.2,8.2v18.2H628.1z"/>
  <path d="M638.6,221.5c0-7.5,5.3-13.5,12.7-13.5c7.8,0,12.4,6.1,12.4,13.8v1h-20.8c0.3,4.9,3.7,8.9,9.2,8.9c3,0,5.9-1.2,8-3.3
    l1.9,2.6c-2.6,2.6-6.1,4-10.2,4C644.1,235.1,638.6,229.6,638.6,221.5z M651.3,211.4c-5.5,0-8.2,4.6-8.4,8.5h16.9
    C659.7,216.1,657.2,211.4,651.3,211.4z"/>
  <path d="M706.3,234.5l-6.7-20.7l-6.7,20.7h-4l-8.2-25.8h4.2l6.3,20.5l6.8-20.5h3.5l6.7,20.5l6.3-20.5h4.2l-8.2,25.8H706.3z"/>
  <path d="M721.7,221.5c0-7.5,5.3-13.5,12.7-13.5c7.8,0,12.4,6.1,12.4,13.8v1H726c0.3,4.9,3.7,8.9,9.2,8.9c3,0,5.9-1.2,8-3.3l1.9,2.6
    c-2.6,2.6-6.1,4-10.2,4C727.2,235.1,721.7,229.6,721.7,221.5z M734.4,211.4c-5.5,0-8.2,4.6-8.4,8.5h16.9
    C742.8,216.1,740.2,211.4,734.4,211.4z"/>
  <path d="M753.2,234.5v-35.6h4v13.7c2.1-2.8,5.2-4.5,8.7-4.5c6.8,0,11.5,5.3,11.5,13.6c0,8.4-4.8,13.5-11.5,13.5
    c-3.6,0-6.8-1.9-8.7-4.5v3.8H753.2z M765,231.5c5.2,0,8.3-4.2,8.3-9.9c0-5.7-3.1-10-8.3-10c-3.2,0-6.4,1.9-7.7,4.2v11.7
    C758.6,229.7,761.8,231.5,765,231.5z"/>
  <path d="M782.8,232.1c0-1.6,1.3-2.9,2.9-2.9c1.6,0,2.9,1.3,2.9,2.9s-1.3,2.9-2.9,2.9C784.1,235,782.8,233.7,782.8,232.1z"/>
</g>
<g>
  <path class="st1" d="M816.2,229.3c0-4.6,3.4-8.5,7.9-8.5c3.7,0,6,2.5,6,6.1c0,0.7-0.1,1.5-0.2,1.9h-11.4c0,0.1-0.1,0.5-0.1,0.7
    c0,2.2,1.6,4.2,4.8,4.2c1.4,0,2.9-0.5,4-1.4l0.8,1.5c-1.3,1-3.1,1.7-4.9,1.7C818.8,235.5,816.2,233,816.2,229.3z M828.2,227.2
    c0-0.1,0-0.4,0-0.5c0-2.3-1.5-4.1-4.3-4.1c-2.5,0-4.8,2.2-5.2,4.6H828.2L828.2,227.2z"/>
  <path class="st1" d="M844.8,223.3l1.7-7.5h2.2l-4.3,19.3h-2.2l0.4-2c-1.2,1.4-2.7,2.3-4.6,2.3c-3.2,0-5.4-2.1-5.4-5.8
    c0-4.5,2.8-8.9,7.3-8.9C842.1,220.8,843.8,221.8,844.8,223.3z M834.8,229.3c0,2.6,1.6,4.2,3.9,4.2c1.8,0,3.4-1.1,4.3-2.4l1.4-6.2
    c-0.7-1.2-2.2-2.3-4.2-2.3C837,222.7,834.8,225.9,834.8,229.3z"/>
  <path class="st1" d="M848.7,235.1l3.1-14h2.2l-3.1,14H848.7z M852.1,217.8c0-1,0.9-1.7,1.7-1.7c0.8,0,1.3,0.6,1.3,1.3
    c0,1-0.9,1.7-1.7,1.7C852.7,219.1,852.1,218.5,852.1,217.8z"/>
  <path class="st1" d="M856.2,232.9c0-0.1,0-0.5,0.1-0.8l2-9.1H856l0.4-1.9h2.3l0.8-3.8h2.1l-0.8,3.8h2.9l-0.4,1.9h-2.8l-1.9,8.6
    c0,0.1,0,0.3,0,0.6c0,0.8,0.5,1.3,1.4,1.3c0.5,0,1-0.2,1.3-0.5l0.2,1.7c-0.5,0.4-1.2,0.7-2.1,0.7
    C857.4,235.5,856.2,234.7,856.2,232.9z"/>
</g>
<linearGradient id="SVGID_1_" gradientUnits="userSpaceOnUse" x1="295.7206" y1="498.691" x2="770.2476" y2="498.691">
  <stop  offset="0" style="stop-color:#55ACEE"/>
  <stop  offset="1" style="stop-color:#ED1E79"/>
</linearGradient>
<path class="st2" d="M341.5,544.4h383c25.3,0,45.7-20.5,45.7-45.7v0c0-25.3-20.5-45.7-45.7-45.7h-383c-25.3,0-45.7,20.5-45.7,45.7v0
  C295.7,524,316.2,544.4,341.5,544.4z"/>
<g>
  <path class="st0" d="M351,495.6h-4.7V491c3.3-0.1,5.7-2,6.4-5.2h5V509H351V495.6z"/>
</g>
<g>
  <path class="st0" d="M438.3,502.1c2.3-2,5.6-4.2,8.1-5.9c1.3-0.9,2-1.8,2-3.1c0-1.4-0.9-2.4-2.8-2.4c-1.1,0-1.9,0.3-2.4,1
    c-0.6,0.8-0.9,1.6-0.9,3.2H436c0-2.7,0.3-3.9,1.1-5.4c1.3-2.3,4.2-4,8.6-4c6.1,0,9.2,3.2,9.2,7.4c0,2-0.6,3.7-1.9,5
    c-2.3,2.2-5.2,3.6-7.7,5.5v0.1h9.4v5.5h-19.2C435.7,505.7,436.3,503.9,438.3,502.1z"/>
</g>
<g>
  <path class="st0" d="M530.1,507.5c-1.9-1.5-2.9-3.8-2.9-6.6h6.4c0.1,2.1,1.3,3.6,3.9,3.6c2.1,0,3.2-1.2,3.2-2.6
    c0-1.8-1.4-2.5-3.6-2.5h-1.3v-4.4h1.1c2.1,0,3.4-0.8,3.4-2.4c0-1.3-1-2.2-2.8-2.2c-2.3,0-3.2,1.4-3.3,3H528c0-4.6,3.5-7.9,9.6-7.9
    c5.4,0,9.2,2.5,9.2,6.8c0,2.2-1.2,3.5-3.1,4.4v0.1c2.1,0.9,3.7,2.6,3.7,5.5c0,5.1-4.6,7.3-9.6,7.3
    C534.3,509.6,531.9,508.9,530.1,507.5z"/>
</g>
<g>
  <path class="st0" d="M630.1,503.8h-10.8v-5.5l10.9-12.6h6.5v13.1h3.2v4.9h-3.2v5.2h-6.5V503.8z M624.2,498.9h6V492h-0.1
    L624.2,498.9L624.2,498.9z"/>
</g>
<circle class="st0" cx="721.6" cy="496.7" r="35.6"/>
<g>
  <path class="st3" d="M711.5,501.9h6.6c0.4,1.6,1.8,2.5,3.5,2.5c2,0,3.2-1.3,3.2-3.5c0-2-1.2-3.3-3.3-3.3c-1.2,0-2.3,0.6-2.8,1.4
    h-6.2l2.5-12.9h15v5.3h-10l-0.7,3.2h0.1c0.7-0.6,2.1-1.3,4.2-1.3c4.8,0,8.1,3,8.1,7.8c0,5.4-3.7,8.6-9.7,8.6
    C716.3,509.6,712.1,507.2,711.5,501.9z"/>
</g>
<polygon class="st0" points="718.2,423.3 692.6,375.7 744.2,375.7 "/>
<path class="st4" d="M1104.1,79.3h-52.7V24.1h52.7c1.1,0,2,0.9,2,2v51.1C1106.1,78.4,1105.2,79.3,1104.1,79.3z"/>
<path class="st5" d="M1104.1,142.3h-52.7V87.1h52.7c1.1,0,2,0.9,2,2v51.1C1106.1,141.4,1105.2,142.3,1104.1,142.3z"/>
<path id="f_1_" class="st0" d="M1079.9,130.2v-14.4h4.8l0.7-5.6h-5.5v-3.6c0-1.6,0.5-2.7,2.8-2.7l3,0v-5c-0.5-0.1-2.3-0.2-4.3-0.2
  c-4.3,0-7.2,2.6-7.2,7.4v4.1h-4.8v5.6h4.8v14.4H1079.9z"/>
<g>
  <g id="g10_1_" transform="matrix(1.3333 0 0 -1.3333 0 150.67)">
    <g id="g12_1_" transform="scale(.1)">
      <g id="g14_1_">
        <g>
          <g id="g16_1_">
            <path id="path22_1_" class="st0" d="M8199.8,820.2c-8-3.5-16.6-5.9-25.5-7c9.2,5.5,16.2,14.2,19.6,24.6
              c-8.6-5.1-18.1-8.8-28.3-10.8c-8.1,8.6-19.7,14-32.5,14c-24.6,0-44.5-19.9-44.5-44.5c0-3.5,0.4-6.9,1.2-10.1
              c-37,1.9-69.8,19.6-91.7,46.5c-3.8-6.6-6-14.2-6-22.4c0-15.4,7.9-29.1,19.8-37c-7.3,0.2-14.2,2.2-20.2,5.6c0-0.2,0-0.4,0-0.6
              c0-21.6,15.3-39.5,35.7-43.6c-3.7-1-7.7-1.6-11.7-1.6c-2.9,0-5.7,0.3-8.4,0.8c5.7-17.7,22.1-30.5,41.6-30.9
              c-15.2-11.9-34.4-19-55.3-19c-3.6,0-7.1,0.2-10.6,0.6c19.7-12.6,43.1-20,68.2-20c81.8,0,126.6,67.8,126.6,126.6
              c0,1.9,0,3.8-0.1,5.8C8186.3,803.4,8193.8,811.3,8199.8,820.2"/>
          </g>
        </g>
      </g>
    </g>
  </g>
</g>
<path class="st6" d="M136.2,307.1H71.4c-1.1,0-2-0.9-2-2v-30.9c0-1.1,0.9-2,2-2h64.8c1.1,0,2,0.9,2,2v30.9
  C138.2,306.3,137.3,307.1,136.2,307.1z"/>
<g>
  <path d="M81.3,290.8c0-3.5,2.6-6.4,6-6.4c2,0,3.3,0.8,4,2l-1.3,0.9c-0.5-1-1.6-1.5-2.7-1.5c-2.7,0-4.3,2.4-4.3,4.9
    c0,2.2,1.5,3.3,3.3,3.3c1.1,0,2.1-0.5,2.7-1.3L90,294c-0.9,0.9-2.1,1.6-3.8,1.6C83.4,295.6,81.3,293.8,81.3,290.8z"/>
  <path d="M92.2,290.9c0-3.3,2.5-6.4,5.9-6.4c3,0,4.9,1.9,4.9,4.7c0,3.4-2.5,6.4-5.9,6.4C94.1,295.6,92.2,293.7,92.2,290.9z
     M101.3,289.2c0-2-1.2-3.3-3.2-3.3c-2.4,0-4.1,2.4-4.1,4.9c0,2,1.2,3.3,3.2,3.3C99.6,294.1,101.3,291.7,101.3,289.2z"/>
  <path d="M106.4,293.6l-1.3,5.7h-1.6l3.3-14.7h1.6l-0.3,1.5c0.9-1.1,2.1-1.8,3.5-1.8c2.4,0,4.1,1.6,4.1,4.4c0,3.5-2.1,6.8-5.6,6.8
    C108.5,295.6,107.1,294.8,106.4,293.6z M113.9,289.1c0-2-1.2-3.2-3-3.2c-1.3,0-2.6,0.8-3.3,1.8l-1,4.7c0.5,0.9,1.7,1.7,3.2,1.7
    C112.3,294.1,113.9,291.7,113.9,289.1z"/>
  <path d="M116.1,297.9c0.2,0.1,0.6,0.2,1.1,0.2c0.6,0,1-0.2,1.6-1.1l1.1-1.6l-2-10.7h1.7l1.6,8.7l5.5-8.7h1.8l-8.2,12.8
    c-0.9,1.5-1.9,2.2-3.3,2.2c-0.5,0-1-0.1-1.4-0.2L116.1,297.9z"/>
</g>
<path class="st6" d="M213.7,307.1h-64.8c-1.1,0-2-0.9-2-2v-30.9c0-1.1,0.9-2,2-2h64.8c1.1,0,2,0.9,2,2v30.9
  C215.7,306.3,214.8,307.1,213.7,307.1z"/>
<g>
  <path d="M158.4,293.7l1.1-1.1c0.6,0.8,1.9,1.7,3.5,1.7c1.5,0,2.4-0.9,2.4-1.9c0-2-5.6-1.7-5.6-4.7c0-1.8,1.5-3.3,4-3.3
    c1.8,0,3.3,0.8,4.1,1.7l-1,1.1c-0.5-0.8-1.8-1.5-3.2-1.5c-1.4,0-2.3,0.7-2.3,1.6c0,1.9,5.6,1.6,5.6,4.7c0,1.8-1.5,3.5-4.2,3.5
    C160.9,295.6,159.4,294.9,158.4,293.7z"/>
  <path d="M178.7,286.4l0.4-1.7h1.6l-2.4,10.6h-1.6l0.3-1.5c-0.9,1.1-2.1,1.8-3.5,1.8c-2.4,0-4.1-1.6-4.1-4.4c0-3.5,2.1-6.8,5.6-6.8
    C176.6,284.4,178,285.2,178.7,286.4z M171.1,290.9c0,2,1.2,3.2,3,3.2c1.3,0,2.6-0.8,3.3-1.8l1-4.7c-0.5-0.9-1.7-1.7-3.2-1.7
    C172.8,285.9,171.1,288.3,171.1,290.9z"/>
  <path d="M184.5,295.3l-2.1-10.6h1.7l1.6,8.7l5.5-8.7h1.8l-6.8,10.6H184.5z"/>
  <path d="M192.8,290.9c0-3.5,2.6-6.4,6-6.4c2.8,0,4.6,1.9,4.6,4.6c0,0.5-0.1,1.2-0.2,1.5h-8.6c0,0.1,0,0.4,0,0.5
    c0,1.6,1.2,3.2,3.6,3.2c1,0,2.2-0.4,3.1-1.1l0.6,1.2c-1,0.7-2.4,1.3-3.7,1.3C194.8,295.6,192.8,293.7,192.8,290.9z M201.9,289.3
    c0-0.1,0-0.3,0-0.4c0-1.8-1.1-3.1-3.2-3.1c-1.9,0-3.6,1.6-3.9,3.5H201.9L201.9,289.3z"/>
</g>
<path class="st6" d="M290.7,307.1h-64.8c-1.1,0-2-0.9-2-2v-30.9c0-1.1,0.9-2,2-2h64.8c1.1,0,2,0.9,2,2v30.9
  C292.7,306.3,291.8,307.1,290.7,307.1z"/>
<g>
  <path d="M245.7,295.3l1.5-7c0-0.2,0.1-0.5,0.1-0.7c0-1.2-0.9-1.7-2.2-1.7c-1.2,0-2.5,0.8-3.3,1.7l-1.7,7.7h-1.6l2.4-10.6h1.6
    l-0.4,1.5c0.9-0.9,2.2-1.8,3.8-1.8c1.9,0,3.2,0.9,3.2,2.6c0,0.2-0.1,0.7-0.1,0.9l-1.6,7.4H245.7z"/>
  <path d="M251.1,290.9c0-3.5,2.6-6.4,6-6.4c2.8,0,4.6,1.9,4.6,4.6c0,0.5-0.1,1.2-0.2,1.5h-8.6c0,0.1,0,0.4,0,0.5
    c0,1.6,1.2,3.2,3.6,3.2c1,0,2.2-0.4,3.1-1.1l0.6,1.2c-1,0.7-2.4,1.3-3.7,1.3C253,295.6,251.1,293.7,251.1,290.9z M260.1,289.3
    c0-0.1,0-0.3,0-0.4c0-1.8-1.1-3.1-3.2-3.1c-1.9,0-3.6,1.6-3.9,3.5H260.1L260.1,289.3z"/>
  <path d="M272.2,295.3l-0.9-8.5l-4.7,8.5H265l-1-10.6h1.7l0.7,8.5l4.7-8.5h1.4l0.9,8.5l4.5-8.5h1.8l-5.7,10.6H272.2z"/>
</g>
</svg>
