<!-- Generator: Adobe Illustrator 18.1.1, SVG Export Plug-In  -->
<svg version="1.1"
   xmlns="http://www.w3.org/2000/svg" xmlns:xlink="http://www.w3.org/1999/xlink" xmlns:a="http://ns.adobe.com/AdobeSVGViewerExtensions/3.0/"
   x="0px" y="0px" width="1106.1px" height="545px" viewBox="0 0 1106.1 545" style="enable-background:new 0 0 1106.1 545;"
   xml:space="preserve">
<style type="text/css">
  .st0{fill:#FFFFFF;}
  .st1{fill:#55ACEE;}
  .st2{fill:#3C5A99;}
  .st3{fill:url(#SVGID_1_);}
  .st4{fill:url(#SVGID_2_);}
</style>
<defs>
</defs>
<path class="st0" d="M1048.7,376.7H2c-1.1,0-2-0.9-2-2L0,2c0-1.1,0.9-2,2-2l1046.7,0c1.1,0,2,0.9,2,2v372.7
  C1050.7,375.8,1049.8,376.7,1048.7,376.7z"/>
<polygon class="st0" points="534.2,423.3 508.6,375.7 560.2,375.7 "/>
<path class="st1" d="M1104.1,79.3h-52.7V24.1h52.7c1.1,0,2,0.9,2,2v51.1C1106.1,78.4,1105.2,79.3,1104.1,79.3z"/>
<path class="st2" d="M1104.1,142.3h-52.7V87.1h52.7c1.1,0,2,0.9,2,2v51.1C1106.1,141.4,1105.2,142.3,1104.1,142.3z"/>
<path id="f_1_" class="st0" d="M1079.9,130.2v-14.4h4.8l0.7-5.6h-5.5v-3.6c0-1.6,0.5-2.7,2.8-2.7l3,0v-5c-0.5-0.1-2.3-0.2-4.3-0.2
  c-4.3,0-7.2,2.6-7.2,7.4v4.1h-4.8v5.6h4.8v14.4H1079.9z"/>
<g>
  <g id="g10_1_" transform="matrix(1.3333 0 0 -1.3333 0 150.67)">
    <g id="g12_1_" transform="scale(.1)">
      <g id="g14_1_">
        <g>
          <g id="g16_1_">
            <path id="path22_1_" class="st0" d="M8199.8,820.2c-8-3.5-16.6-5.9-25.5-7c9.2,5.5,16.2,14.2,19.6,24.6
              c-8.6-5.1-18.1-8.8-28.3-10.8c-8.1,8.6-19.7,14-32.5,14c-24.6,0-44.5-19.9-44.5-44.5c0-3.5,0.4-6.9,1.2-10.1
              c-37,1.9-69.8,19.6-91.7,46.5c-3.8-6.6-6-14.2-6-22.4c0-15.4,7.9-29.1,19.8-37c-7.3,0.2-14.2,2.2-20.2,5.6c0-0.2,0-0.4,0-0.6
              c0-21.6,15.3-39.5,35.7-43.6c-3.7-1-7.7-1.6-11.7-1.6c-2.9,0-5.7,0.3-8.4,0.8c5.7-17.7,22.1-30.5,41.6-30.9
              c-15.2-11.9-34.4-19-55.3-19c-3.6,0-7.1,0.2-10.6,0.6c19.7-12.6,43.1-20,68.2-20c81.8,0,126.6,67.8,126.6,126.6
              c0,1.9,0,3.8-0.1,5.8C8186.3,803.4,8193.8,811.3,8199.8,820.2"/>
          </g>
        </g>
      </g>
    </g>
  </g>
</g>
<g>
  <linearGradient id="SVGID_1_" gradientUnits="userSpaceOnUse" x1="300.0679" y1="499.2527" x2="766.642" y2="499.2527">
    <stop  offset="0" style="stop-color:#55ACEE"/>
    <stop  offset="1" style="stop-color:#ED1E79"/>
  </linearGradient>
  <path class="st3" d="M345.8,545h375.1c25.3,0,45.7-20.5,45.7-45.7v0c0-25.3-20.5-45.7-45.7-45.7l-375.1,0
    c-25.3,0-45.7,20.5-45.7,45.7v0C300.1,524.5,320.5,545,345.8,545z"/>
  <g>
    <path class="st0" d="M347.4,498.2h-4.7v-4.6c3.3-0.1,5.7-2,6.4-5.2h5v23.2h-6.7V498.2z"/>
  </g>
  <g>
    <path class="st0" d="M434.7,504.7c2.3-2,5.6-4.2,8.1-5.9c1.3-0.9,2-1.8,2-3.1c0-1.4-0.9-2.4-2.8-2.4c-1.1,0-1.9,0.3-2.4,1
      c-0.6,0.8-0.9,1.6-0.9,3.2h-6.3c0-2.7,0.3-3.9,1.1-5.4c1.3-2.3,4.2-4,8.6-4c6.1,0,9.2,3.2,9.2,7.4c0,2-0.6,3.7-1.9,5
      c-2.3,2.2-5.2,3.6-7.7,5.5v0.1h9.4v5.5h-19.2C432.1,508.3,432.7,506.5,434.7,504.7z"/>
  </g>
  <g>
    <path class="st0" d="M626.5,506.4h-10.8v-5.5l10.9-12.6h6.5v13.1h3.2v4.9h-3.2v5.2h-6.5V506.4z M620.6,501.4h6v-6.9h-0.1
      L620.6,501.4L620.6,501.4z"/>
  </g>
  <g>
    <path class="st0" d="M707.9,504.5h6.6c0.4,1.6,1.8,2.5,3.5,2.5c2,0,3.2-1.3,3.2-3.5c0-2-1.2-3.3-3.3-3.3c-1.2,0-2.3,0.6-2.8,1.4
      h-6.2l2.5-12.9h15v5.3h-10l-0.7,3.2h0.1c0.7-0.6,2.1-1.3,4.2-1.3c4.8,0,8.1,3,8.1,7.8c0,5.4-3.7,8.6-9.7,8.6
      C712.7,512.1,708.5,509.8,707.9,504.5z"/>
  </g>
  <path class="st0" d="M534,463.6c-19.7,0-35.6,16-35.6,35.6c0,19.7,16,35.6,35.6,35.6s35.6-16,35.6-35.6
    C569.7,479.6,553.7,463.6,534,463.6z M534.2,512.1c-3.5,0-5.9-0.6-7.7-2c-1.9-1.5-2.9-3.5-2.9-6.5h6.4c0.1,2,1.3,3.5,3.9,3.5
    c2.1,0,3.2-0.9,3.2-2.3c0-1.8-1.4-2.2-3.6-2.2H532v-5h1.3c2.1,0,3.4-0.8,3.4-2.4c0-1.3-1-1.9-2.8-1.9c-2.3,0-3.2,1.3-3.3,3.3h-6.2
    c0-5,3.5-8.3,9.6-8.3c5.4,0,9.2,2.3,9.2,6.6c0,2.2-1.1,3.3-3.1,4.2v0.1c2,0.9,3.8,2.6,3.8,5.5C543.8,509.9,539.2,512.1,534.2,512.1
    z"/>
</g>
</svg>
