<!-- Generator: Adobe Illustrator 18.1.1, SVG Export Plug-In  -->
<svg version="1.1"
   xmlns="http://www.w3.org/2000/svg" xmlns:xlink="http://www.w3.org/1999/xlink" xmlns:a="http://ns.adobe.com/AdobeSVGViewerExtensions/3.0/"
   x="0px" y="0px" width="677.5px" height="195px" viewBox="0 0 677.5 195" style="enable-background:new 0 0 677.5 195;"
   xml:space="preserve">
<style type="text/css">
  .st0{fill:#1A1A1A;}
  .st1{fill:#FFFFFF;}
  .st2{fill:#55ACEE;}
</style>
<defs>
</defs>
<g>
  <path class="st0" d="M0,185.8v-31.4h12.9c5.3,0,8.7,3.1,8.7,8c0,4-2.7,6.6-5.5,7.2c3.3,0.5,6.1,4,6.1,7.7c0,5.2-3.4,8.5-9,8.5H0z
     M18.7,162.7c0-3.2-2.1-5.8-6.2-5.8H2.7v11.6h9.9C16.6,168.5,18.7,165.9,18.7,162.7z M19.4,177.1c0-3.2-2.2-6.2-6.6-6.2H2.7v12.4
    h10.1C16.9,183.3,19.4,180.9,19.4,177.1z"/>
  <path class="st0" d="M26.4,174.4c0-6.6,4.6-11.9,10.9-11.9c6.9,0,10.7,5.5,10.7,12.1v0.7h-19c0.2,4.9,3.5,9,8.9,9
    c2.9,0,5.5-1.1,7.4-3.2l1.3,1.6c-2.3,2.4-5.1,3.7-8.9,3.7C31.1,186.4,26.4,181.4,26.4,174.4z M37.3,164.6c-5.4,0-8.1,4.7-8.2,8.7
    h16.5C45.6,169.4,43,164.6,37.3,164.6z"/>
  <path class="st0" d="M51.3,182.7l1.5-1.8c1.5,1.8,4.1,3.3,7.3,3.3c3.8,0,6.1-2,6.1-4.6c0-6.2-14.4-2.7-14.4-10.9
    c0-3.5,3-6.3,8.1-6.3c3.9,0,6.5,1.5,8.1,3.3l-1.4,1.7c-1.3-1.8-3.8-3-6.8-3c-3.5,0-5.7,1.8-5.7,4.1c0,5.7,14.3,2.2,14.3,11
    c0,3.7-2.8,6.7-8.5,6.7C56.3,186.4,53.5,185.3,51.3,182.7z"/>
  <path class="st0" d="M74.2,181.4v-16.2h-3.8V163h3.8v-6.2h2.5v6.2h4.6v2.2h-4.6V181c0,1.8,0.8,3.1,2.4,3.1c1.1,0,2-0.5,2.5-1.1
    l0.9,1.9c-0.9,0.8-2,1.4-3.9,1.4C75.6,186.4,74.2,184.5,74.2,181.4z"/>
  <path class="st0" d="M98.9,182.1v12.3h-2.4V163h2.4v3.6c1.6-2.3,4.5-4.1,7.9-4.1c6.1,0,10.2,4.6,10.2,11.9c0,7.3-4.1,12-10.2,12
    C103.6,186.4,100.8,184.7,98.9,182.1z M114.4,174.4c0-5.5-2.9-9.7-8-9.7c-3.2,0-6.2,1.9-7.5,4.1V180c1.3,2.2,4.3,4.1,7.5,4.1
    C111.5,184.1,114.4,179.9,114.4,174.4z"/>
  <path class="st0" d="M120.7,174.4c0-6.6,4.6-11.9,10.9-11.9c6.9,0,10.7,5.5,10.7,12.1v0.7h-19c0.2,4.9,3.5,9,8.9,9
    c2.9,0,5.5-1.1,7.4-3.2l1.3,1.6c-2.3,2.4-5.1,3.7-8.9,3.7C125.5,186.4,120.7,181.4,120.7,174.4z M131.6,164.6
    c-5.4,0-8.1,4.7-8.2,8.7h16.5C139.9,169.4,137.3,164.6,131.6,164.6z"/>
  <path class="st0" d="M147.5,185.8V163h2.4v3.9c1.9-2.5,4.5-4.4,7.7-4.4v2.7c-0.4-0.1-0.8-0.1-1.2-0.1c-2.3,0-5.4,2.1-6.5,4.1v16.6
    H147.5z"/>
  <path class="st0" d="M162.1,185.8v-20.6h-3.8V163h3.8V161c0-4.4,2.4-7.1,6.2-7.1c1.6,0,2.9,0.3,4.3,1.6l-1.2,1.8
    c-0.8-0.7-1.7-1.2-2.9-1.2c-2.6,0-3.9,1.8-3.9,4.9v2.1h4.6v2.2h-4.6v20.6H162.1z"/>
  <path class="st0" d="M171.3,174.4c0-6.6,4.2-11.9,10.9-11.9c6.7,0,11,5.3,11,11.9s-4.2,12-11,12C175.6,186.4,171.3,181,171.3,174.4
    z M190.6,174.4c0-5-3-9.7-8.3-9.7c-5.3,0-8.3,4.7-8.3,9.7c0,5.1,3,9.8,8.3,9.8C187.6,184.1,190.6,179.5,190.6,174.4z"/>
  <path class="st0" d="M198.3,185.8V163h2.4v3.9c1.9-2.5,4.5-4.4,7.7-4.4v2.7c-0.4-0.1-0.8-0.1-1.2-0.1c-2.3,0-5.4,2.1-6.5,4.1v16.6
    H198.3z"/>
  <path class="st0" d="M239.2,185.8v-15.9c0-3.2-1.4-5.2-4.6-5.2c-2.4,0-5.2,1.8-6.5,3.9v17.2h-2.5v-15.9c0-3.2-1.3-5.2-4.5-5.2
    c-2.4,0-5.2,1.8-6.5,3.9v17.2h-2.4V163h2.4v3.4c0.9-1.5,4.1-4,7.3-4c3.5,0,5.4,2.1,6,4.3c1.3-2.1,4.3-4.3,7.5-4.3
    c4.2,0,6.2,2.4,6.2,6.9v16.4H239.2z"/>
  <path class="st0" d="M247.4,157.6c0-1,0.9-1.8,1.9-1.8c1,0,1.9,0.8,1.9,1.8c0,1-0.8,1.9-1.9,1.9
    C248.3,159.5,247.4,158.6,247.4,157.6z M248.1,185.8V163h2.4v22.8H248.1z"/>
  <path class="st0" d="M272.3,185.8v-15.4c0-4.4-2.2-5.7-5.5-5.7c-2.9,0-5.9,1.8-7.4,3.9v17.2H257V163h2.4v3.4c1.6-2,4.9-4,8.2-4
    c4.6,0,7.2,2.3,7.2,7.4v15.9H272.3z"/>
  <path class="st0" d="M281.3,191.6l1.4-2c2,2.4,4.1,3.2,7.6,3.2c4.1,0,7.7-2.1,7.7-7.2V182c-1.6,2.4-4.5,4.3-7.9,4.3
    c-6,0-10.1-4.6-10.1-11.9c0-7.2,4.1-11.9,10.1-11.9c3.2,0,6.1,1.6,7.9,4.2V163h2.5v22.6c0,6.9-4.7,9.4-10.2,9.4
    C286.4,195,284,194.3,281.3,191.6z M298,179.9v-11.1c-1.3-2.2-4.3-4.1-7.5-4.1c-5,0-8,4.2-8,9.7c0,5.5,2.9,9.7,8,9.7
    C293.7,184.1,296.7,182.1,298,179.9z"/>
  <path class="st0" d="M326,185.8v-29h-10.3v-2.4H339v2.4h-10.3v29H326z"/>
  <path class="st0" d="M359.6,185.8l-6.4-19.5l-6.4,19.5h-2.4l-7.4-22.8h2.6l6,19.3l6.4-19.3h2.1l6.4,19.3l6-19.3h2.6l-7.4,22.8
    H359.6z"/>
  <path class="st0" d="M371.6,174.4c0-6.6,4.6-11.9,10.9-11.9c6.9,0,10.7,5.5,10.7,12.1v0.7h-19c0.2,4.9,3.5,9,8.9,9
    c2.9,0,5.5-1.1,7.4-3.2l1.3,1.6c-2.3,2.4-5.1,3.7-8.9,3.7C376.3,186.4,371.6,181.4,371.6,174.4z M382.4,164.6
    c-5.4,0-8.1,4.7-8.2,8.7h16.5C390.7,169.4,388.1,164.6,382.4,164.6z"/>
  <path class="st0" d="M397.1,174.4c0-6.6,4.6-11.9,10.9-11.9c6.9,0,10.7,5.5,10.7,12.1v0.7h-19c0.2,4.9,3.5,9,8.9,9
    c2.9,0,5.5-1.1,7.4-3.2l1.3,1.6c-2.3,2.4-5.1,3.7-8.9,3.7C401.8,186.4,397.1,181.4,397.1,174.4z M408,164.6c-5.4,0-8.1,4.7-8.2,8.7
    h16.5C416.2,169.4,413.7,164.6,408,164.6z"/>
  <path class="st0" d="M424.4,181.4v-16.2h-3.8V163h3.8v-6.2h2.5v6.2h4.6v2.2h-4.6V181c0,1.8,0.8,3.1,2.4,3.1c1.1,0,2-0.5,2.5-1.1
    l0.9,1.9c-0.9,0.8-2,1.4-3.9,1.4C425.8,186.4,424.4,184.5,424.4,181.4z"/>
  <path class="st0" d="M433.7,182.7l1.5-1.8c1.5,1.8,4.1,3.3,7.3,3.3c3.8,0,6.1-2,6.1-4.6c0-6.2-14.4-2.7-14.4-10.9
    c0-3.5,3-6.3,8.1-6.3c3.9,0,6.5,1.5,8.1,3.3l-1.4,1.7c-1.3-1.8-3.8-3-6.8-3c-3.5,0-5.7,1.8-5.7,4.1c0,5.7,14.3,2.2,14.3,11
    c0,3.7-2.8,6.7-8.5,6.7C438.8,186.4,436,185.3,433.7,182.7z"/>
  <path class="st0" d="M466.5,157.6c0-1,0.9-1.8,1.9-1.8c1,0,1.9,0.8,1.9,1.8c0,1-0.8,1.9-1.9,1.9
    C467.4,159.5,466.5,158.6,466.5,157.6z M467.1,185.8V163h2.4v22.8H467.1z"/>
  <path class="st0" d="M491.4,185.8v-15.4c0-4.4-2.2-5.7-5.5-5.7c-2.9,0-5.9,1.8-7.4,3.9v17.2H476V163h2.4v3.4c1.6-2,4.9-4,8.2-4
    c4.6,0,7.2,2.3,7.2,7.4v15.9H491.4z"/>
  <path class="st0" d="M511.8,181.4v-16.2H508V163h3.8v-6.2h2.5v6.2h4.6v2.2h-4.6V181c0,1.8,0.8,3.1,2.4,3.1c1.1,0,2-0.5,2.5-1.1
    l0.9,1.9c-0.9,0.8-2,1.4-3.9,1.4C513.3,186.4,511.8,184.5,511.8,181.4z"/>
  <path class="st0" d="M538.5,185.8v-15.5c0-4.4-2.2-5.6-5.5-5.6c-2.9,0-5.9,1.8-7.4,3.9v17.2h-2.4v-31.4h2.4v12.1c1.6-2,4.9-4,8.2-4
    c4.6,0,7.2,2.2,7.2,7.3v16H538.5z"/>
  <path class="st0" d="M546.7,157.6c0-1,0.9-1.8,1.9-1.8c1,0,1.9,0.8,1.9,1.8c0,1-0.8,1.9-1.9,1.9
    C547.6,159.5,546.7,158.6,546.7,157.6z M547.4,185.8V163h2.4v22.8H547.4z"/>
  <path class="st0" d="M554.3,182.7l1.5-1.8c1.5,1.8,4.1,3.3,7.3,3.3c3.8,0,6.1-2,6.1-4.6c0-6.2-14.4-2.7-14.4-10.9
    c0-3.5,3-6.3,8.1-6.3c3.9,0,6.5,1.5,8.1,3.3l-1.4,1.7c-1.3-1.8-3.8-3-6.8-3c-3.5,0-5.7,1.8-5.7,4.1c0,5.7,14.3,2.2,14.3,11
    c0,3.7-2.8,6.7-8.5,6.7C559.4,186.4,556.6,185.3,554.3,182.7z"/>
  <path class="st0" d="M588.2,181.4v-16.2h-3.8V163h3.8v-6.2h2.5v6.2h4.6v2.2h-4.6V181c0,1.8,0.8,3.1,2.4,3.1c1.1,0,2-0.5,2.5-1.1
    l0.9,1.9c-0.9,0.8-2,1.4-3.9,1.4C589.7,186.4,588.2,184.5,588.2,181.4z"/>
  <path class="st0" d="M598.2,174.4c0-6.6,4.2-11.9,10.9-11.9c6.7,0,11,5.3,11,11.9s-4.2,12-11,12C602.5,186.4,598.2,181,598.2,174.4
    z M617.5,174.4c0-5-3-9.7-8.3-9.7c-5.3,0-8.3,4.7-8.3,9.7c0,5.1,3,9.8,8.3,9.8C614.5,184.1,617.5,179.5,617.5,174.4z"/>
  <path class="st0" d="M627.7,182.1v12.3h-2.4V163h2.4v3.6c1.6-2.3,4.5-4.1,7.9-4.1c6.1,0,10.2,4.6,10.2,11.9c0,7.3-4.1,12-10.2,12
    C632.4,186.4,629.5,184.7,627.7,182.1z M643.1,174.4c0-5.5-2.9-9.7-8-9.7c-3.2,0-6.2,1.9-7.5,4.1V180c1.3,2.2,4.3,4.1,7.5,4.1
    C640.3,184.1,643.1,179.9,643.1,174.4z"/>
  <path class="st0" d="M650.1,157.6c0-1,0.9-1.8,1.9-1.8c1,0,1.9,0.8,1.9,1.8c0,1-0.8,1.9-1.9,1.9C651,159.5,650.1,158.6,650.1,157.6
    z M650.8,185.8V163h2.4v22.8H650.8z"/>
  <path class="st0" d="M658.4,174.4c0-6.6,4.3-11.9,11-11.9c4,0,6.2,1.6,8.1,3.9l-1.7,1.5c-1.6-2.3-3.7-3.2-6.2-3.2
    c-5.3,0-8.6,4.2-8.6,9.7s3.2,9.8,8.6,9.8c2.5,0,4.6-0.9,6.2-3.2l1.7,1.5c-1.8,2.4-4.1,3.9-8.1,3.9
    C662.7,186.4,658.4,181,658.4,174.4z"/>
</g>
<circle class="st1" cx="337.7" cy="51.4" r="51.4"/>
<g>
  <g id="g10_1_" transform="matrix(1.3333 0 0 -1.3333 0 150.67)">
    <g id="g12_1_" transform="scale(.1)">
      <g id="g14_1_">
        <g>
          <g id="g16_1_">
            <path id="path22_1_" class="st2" d="M2754.7,876.5c-15.6-6.9-32.4-11.6-50-13.7c18,10.8,31.8,27.9,38.3,48.2
              c-16.8-10-35.5-17.2-55.3-21.1c-15.9,16.9-38.5,27.5-63.6,27.5c-48.1,0-87.1-39-87.1-87.1c0-6.8,0.8-13.5,2.3-19.8
              c-72.4,3.6-136.6,38.3-179.5,91c-7.5-12.9-11.8-27.8-11.8-43.8c0-30.2,15.4-56.9,38.7-72.5c-14.3,0.4-27.7,4.4-39.5,10.9
              c0-0.4,0-0.7,0-1.1c0-42.2,30-77.4,69.9-85.4c-7.3-2-15-3-22.9-3c-5.6,0-11.1,0.5-16.4,1.6c11.1-34.6,43.2-59.8,81.4-60.5
              c-29.8-23.4-67.4-37.3-108.2-37.3c-7,0-14,0.4-20.8,1.2c38.6-24.7,84.3-39.1,133.5-39.1c160.2,0,247.8,132.7,247.8,247.8
              c0,3.8-0.1,7.5-0.2,11.3C2728.3,843.6,2743,859,2754.7,876.5"/>
          </g>
        </g>
      </g>
    </g>
  </g>
</g>
</svg>
