<!-- Generator: Adobe Illustrator 18.1.1, SVG Export Plug-In  -->
<svg version="1.1"
   xmlns="http://www.w3.org/2000/svg" xmlns:xlink="http://www.w3.org/1999/xlink" xmlns:a="http://ns.adobe.com/AdobeSVGViewerExtensions/3.0/"
   x="0px" y="0px" width="384.5px" height="32px" viewBox="0 0 384.5 32" style="enable-background:new 0 0 384.5 32;"
   xml:space="preserve">
<style type="text/css">
  .st0{fill:#FFFFFF;}
</style>
<defs>
</defs>
<g>
  <path class="st0" d="M0,31.4V0h11.8c6,0,9.5,4.2,9.5,9.2c0,4.9-3.5,9.2-9.5,9.2H2.7v13H0z M18.4,9.2c0-4-2.7-6.7-6.9-6.7H2.7v13.5
    h8.8C15.7,15.9,18.4,13.1,18.4,9.2z"/>
  <path class="st0" d="M25.6,31.4V8.7h2.4v3.9c1.9-2.5,4.5-4.4,7.7-4.4v2.7c-0.4-0.1-0.8-0.1-1.2-0.1c-2.3,0-5.4,2.1-6.5,4.1v16.6
    H25.6z"/>
  <path class="st0" d="M38.1,20c0-6.6,4.6-11.9,10.9-11.9c6.9,0,10.7,5.5,10.7,12.1v0.7h-19c0.2,4.9,3.5,9,8.9,9
    c2.9,0,5.5-1.1,7.4-3.2l1.3,1.6c-2.3,2.4-5.1,3.7-8.9,3.7C42.8,32,38.1,27,38.1,20z M49,10.2c-5.4,0-8.1,4.7-8.2,8.7h16.5
    C57.2,15,54.7,10.2,49,10.2z"/>
  <path class="st0" d="M71,31.4L61.4,8.7h2.7l8.3,19.9l8.2-19.9h2.8l-9.6,22.8H71z"/>
  <path class="st0" d="M85.7,3.2c0-1,0.9-1.8,1.9-1.8c1,0,1.9,0.8,1.9,1.8c0,1-0.8,1.9-1.9,1.9C86.6,5.1,85.7,4.2,85.7,3.2z
     M86.4,31.4V8.7h2.4v22.8H86.4z"/>
  <path class="st0" d="M94,20c0-6.6,4.2-11.9,10.9-11.9c6.7,0,11,5.3,11,11.9s-4.2,12-11,12C98.3,32,94,26.7,94,20z M113.2,20
    c0-5-3-9.7-8.3-9.7c-5.3,0-8.3,4.7-8.3,9.7c0,5.1,3,9.8,8.3,9.8C110.3,29.8,113.2,25.1,113.2,20z"/>
  <path class="st0" d="M136.4,31.4v-3.3c-1.8,2.1-4.9,3.9-8.2,3.9c-4.6,0-7.2-2.2-7.2-7.3v-16h2.4v15.5c0,4.4,2.2,5.7,5.5,5.7
    c2.9,0,5.9-1.7,7.4-3.8V8.7h2.5v22.8H136.4z"/>
  <path class="st0" d="M143.3,28.4l1.5-1.8c1.5,1.8,4.1,3.3,7.3,3.3c3.8,0,6.1-2,6.1-4.6c0-6.2-14.4-2.7-14.4-10.9
    c0-3.5,3-6.3,8.1-6.3c3.9,0,6.5,1.5,8.1,3.3l-1.4,1.7c-1.3-1.8-3.8-3-6.8-3c-3.5,0-5.7,1.8-5.7,4.1c0,5.7,14.3,2.2,14.3,11
    c0,3.7-2.8,6.7-8.5,6.7C148.4,32,145.6,30.9,143.3,28.4z"/>
  <path class="st0" d="M176.9,31.4V0h11.8c6,0,9.5,4.2,9.5,9.2c0,4.9-3.5,9.2-9.5,9.2h-9.1v13H176.9z M195.3,9.2c0-4-2.7-6.7-6.9-6.7
    h-8.8v13.5h8.8C192.5,15.9,195.3,13.1,195.3,9.2z"/>
  <path class="st0" d="M202.5,31.4V8.7h2.4v3.9c1.9-2.5,4.5-4.4,7.7-4.4v2.7c-0.4-0.1-0.8-0.1-1.2-0.1c-2.3,0-5.4,2.1-6.5,4.1v16.6
    H202.5z"/>
  <path class="st0" d="M215,20c0-6.6,4.6-11.9,10.9-11.9c6.9,0,10.7,5.5,10.7,12.1v0.7h-19c0.2,4.9,3.5,9,8.9,9
    c2.9,0,5.5-1.1,7.4-3.2l1.3,1.6c-2.3,2.4-5.1,3.7-8.9,3.7C219.7,32,215,27,215,20z M225.8,10.2c-5.4,0-8.1,4.7-8.2,8.7h16.5
    C234.1,15,231.5,10.2,225.8,10.2z"/>
  <path class="st0" d="M258.5,31.4v-3.6c-1.6,2.4-4.5,4.2-7.9,4.2c-6,0-10.1-4.6-10.1-11.9c0-7.2,4.1-12,10.1-12
    c3.2,0,6.1,1.6,7.9,4.2V0h2.5v31.4H258.5z M258.5,25.7V14.5c-1.3-2.2-4.3-4.1-7.5-4.1c-5,0-8,4.2-8,9.8c0,5.5,2.9,9.7,8,9.7
    C254.3,29.8,257.2,27.9,258.5,25.7z"/>
  <path class="st0" d="M266.8,3.2c0-1,0.9-1.8,1.9-1.8c1,0,1.9,0.8,1.9,1.8c0,1-0.8,1.9-1.9,1.9C267.7,5.1,266.8,4.2,266.8,3.2z
     M267.5,31.4V8.7h2.4v22.8H267.5z"/>
  <path class="st0" d="M275.1,20c0-6.6,4.3-11.9,11-11.9c4,0,6.2,1.6,8.1,3.9l-1.7,1.5c-1.6-2.3-3.7-3.2-6.2-3.2
    c-5.3,0-8.6,4.2-8.6,9.7s3.2,9.8,8.6,9.8c2.5,0,4.6-0.9,6.2-3.2l1.7,1.5c-1.8,2.4-4.1,3.9-8.1,3.9C279.5,32,275.1,26.7,275.1,20z"
    />
  <path class="st0" d="M299,27V10.8h-3.8V8.7h3.8V2.4h2.5v6.2h4.6v2.2h-4.6v15.8c0,1.8,0.8,3.1,2.4,3.1c1.1,0,2-0.5,2.5-1.1l0.9,1.9
    c-0.9,0.8-2,1.4-3.9,1.4C300.4,32,299,30.1,299,27z"/>
  <path class="st0" d="M309.6,3.2c0-1,0.9-1.8,1.9-1.8c1,0,1.9,0.8,1.9,1.8c0,1-0.8,1.9-1.9,1.9C310.5,5.1,309.6,4.2,309.6,3.2z
     M310.3,31.4V8.7h2.4v22.8H310.3z"/>
  <path class="st0" d="M317.9,20c0-6.6,4.2-11.9,10.9-11.9c6.7,0,11,5.3,11,11.9s-4.2,12-11,12C322.1,32,317.9,26.7,317.9,20z
     M337.1,20c0-5-3-9.7-8.3-9.7c-5.3,0-8.3,4.7-8.3,9.7c0,5.1,3,9.8,8.3,9.8C334.1,29.8,337.1,25.1,337.1,20z"/>
  <path class="st0" d="M360.2,31.4V16c0-4.4-2.2-5.7-5.5-5.7c-2.9,0-5.9,1.8-7.4,3.9v17.2h-2.4V8.7h2.4v3.4c1.6-2,4.9-4,8.2-4
    c4.6,0,7.2,2.3,7.2,7.4v15.9H360.2z"/>
  <path class="st0" d="M367.2,28.4l1.5-1.8c1.5,1.8,4.1,3.3,7.3,3.3c3.8,0,6.1-2,6.1-4.6c0-6.2-14.4-2.7-14.4-10.9
    c0-3.5,3-6.3,8.1-6.3c3.9,0,6.5,1.5,8.1,3.3l-1.4,1.7c-1.3-1.8-3.8-3-6.8-3c-3.5,0-5.7,1.8-5.7,4.1c0,5.7,14.3,2.2,14.3,11
    c0,3.7-2.8,6.7-8.5,6.7C372.3,32,369.4,30.9,367.2,28.4z"/>
</g>
</svg>
